<?xml version="1.0" encoding="UTF-8"?>
<svg version="1.1" xmlns="http://www.w3.org/2000/svg" width="2000" height="1125">
<path d="M0 0 C2.46032218 0.86734207 4.89282272 1.78922042 7.32449341 2.73391724 C8.24569473 3.08322296 9.16689606 3.43252869 10.11601257 3.79241943 C12.10696173 4.54833028 14.09641456 5.30819172 16.08450317 6.07159424 C21.44952459 8.13145799 26.82547132 10.16252334 32.19949341 12.19876099 C33.31238739 12.62143753 34.42528137 13.04411407 35.57189941 13.479599 C47.60272682 18.04343562 59.68136529 22.47483008 71.76589966 26.89407349 C74.69236655 27.9643162 77.61877424 29.03470571 80.54446411 30.10707092 C82.43257069 30.79752983 84.32196866 31.48446818 86.212677 32.16777039 C91.1548239 33.96275057 96.04443189 35.83855023 100.90481567 37.84524536 C113.29426109 42.89084769 123.3513017 45.58835959 136.70339966 44.70657349 C139.56598428 44.56385157 142.42868962 44.44994532 145.29324341 44.35501099 C145.98869766 44.33096191 146.68415192 44.30691284 147.40068054 44.28213501 C158.40110889 44.06064398 169.60620352 46.43879692 179.95339966 50.08157349 C180.70637329 50.33036255 181.45934692 50.57915161 182.23513794 50.83547974 C186.99799239 52.47735527 190.87703729 54.61382934 195.14089966 57.33157349 C201.8326409 60.71454022 207.0160528 60.48090361 214.38308716 59.77688599 C215.57726257 59.67723541 216.77143799 59.57758484 218.00180054 59.47491455 C221.47330089 59.17998237 224.94242082 58.8673122 228.41162872 58.54704285 C231.781202 58.23865022 235.15185688 57.94287253 238.52247429 57.64614487 C252.2153397 56.43970056 265.90360292 55.18329312 279.59164429 53.92349243 C285.61179054 53.36945835 291.63218053 52.81824526 297.65296173 52.2711525 C300.4383315 52.01691491 303.22329547 51.75852257 306.00827026 51.5 C307.71619668 51.34451293 309.42414244 51.18923816 311.1321106 51.03421021 C311.89157486 50.96254639 312.65103912 50.89088257 313.43351746 50.81704712 C318.23187123 50.3873458 322.94884364 50.10463236 327.76589966 50.33157349 C329.76589966 52.33157349 329.76589966 52.33157349 330.41043091 54.62454224 C329.63684582 57.87359961 329.06117176 58.1231746 326.34011841 59.88235474 C324.72175014 60.82132982 323.09169246 61.74031094 321.45339966 62.64407349 C319.6029371 63.70882643 317.75268773 64.77394993 315.90261841 65.83938599 C314.90665649 66.40431763 313.91069458 66.96924927 312.884552 67.55130005 C307.47247888 70.64076593 302.12357763 73.83653786 296.76589966 77.01907349 C295.64796021 77.67947632 294.53002075 78.33987915 293.37820435 79.02029419 C287.18680459 82.67971838 281.02281136 86.38041397 274.88699341 90.13235474 C274.24098175 90.52694382 273.59497009 90.9215329 272.92938232 91.32807922 C269.791012 93.2459227 266.65598417 95.1689273 263.52566528 97.09988403 C262.40740356 97.78477905 261.28914185 98.46967407 260.13699341 99.17532349 C259.14626831 99.78569458 258.15554321 100.39606567 257.13479614 101.02493286 C254.76589966 102.33157349 254.76589966 102.33157349 252.76589966 102.33157349 C253.14359497 102.80723755 253.52129028 103.28290161 253.91043091 103.77297974 C255.88078494 106.27860559 257.82584796 108.80239615 259.76589966 111.33157349 C260.16244751 111.84639282 260.55899536 112.36121216 260.96755981 112.89163208 C286.01067426 145.59086786 302.8989765 182.94250224 316.32839966 221.64407349 C316.57647369 222.35166809 316.82454773 223.0592627 317.08013916 223.78829956 C319.85567333 231.75202715 322.22673615 239.72128635 324.07839966 247.95266724 C324.32784081 249.05884148 324.32784081 249.05884148 324.58232117 250.18736267 C328.51702832 268.56189727 323.44748422 286.3062303 313.93386841 302.12844849 C288.05873413 340.3583766 244.30200779 364.2213659 199.76785278 372.99563599 C195.11351696 373.86125847 190.44546166 374.61633034 185.76589966 375.33157349 C184.62652954 375.5116394 184.62652954 375.5116394 183.46414185 375.69534302 C121.93922051 384.9641401 54.59779043 371.56930125 4.19168091 334.73782349 C-1.77626287 330.29085281 -7.42411115 325.52850842 -12.89425659 320.48391724 C-15.19840618 318.36440735 -17.55405468 316.31722007 -19.92160034 314.26907349 C-24.08046581 310.56826488 -27.66928712 306.59754045 -31.23410034 302.33157349 C-32.05265503 301.40087036 -32.87120972 300.47016724 -33.71456909 299.51126099 C-43.97213898 287.74729478 -49.23515379 276.17010999 -49.23410034 260.33157349 C-47.82077717 250.02156218 -44.33329 240.4523327 -40.54660034 230.83157349 C-39.97333825 229.35708487 -39.4001802 227.88255579 -38.82711792 226.4079895 C-0.73397782 128.89556976 -0.73397782 128.89556976 27.76589966 99.33157349 C28.22222778 98.85478149 28.67855591 98.3779895 29.14871216 97.88674927 C40.30440847 86.27990347 52.7404879 76.73588562 65.76589966 67.33157349 C65.31488892 66.98078735 64.86387817 66.63000122 64.39920044 66.26858521 C43.19558716 49.77688599 43.19558716 49.77688599 40.97512817 48.04983521 C39.49388063 46.89777197 38.01259768 45.74575425 36.53128052 44.59378052 C32.71673183 41.62723184 28.90284322 38.65984101 25.09011841 35.69094849 C23.54459535 34.48775944 21.99902294 33.28463378 20.45339966 32.08157349 C19.70380981 31.49811157 18.95421997 30.91464966 18.18191528 30.31350708 C13.72222016 26.84496447 9.24980342 23.39374035 4.76589966 19.95657349 C-9.78532985 8.78034398 -9.78532985 8.78034398 -13.23410034 5.33157349 C-12.98410034 2.26907349 -12.98410034 2.26907349 -12.23410034 -0.66842651 C-8.46041876 -2.5552673 -3.90462819 -1.16823625 0 0 Z " fill="#FF4B45" transform="translate(66.23410034179688,374.6684265136719)"/>
<path d="M0 0 C8.97579748 4.63886781 16.75705664 11.38183602 24.6640625 17.60546875 C36.8473081 28.00686538 36.8473081 28.00686538 51.83984375 31.48828125 C62.62442015 29.82193755 73.0368883 21.70382723 82.15991211 16.08886719 C82.97468018 15.5890332 83.78944824 15.08919922 84.62890625 14.57421875 C85.7128064 13.90265747 85.7128064 13.90265747 86.81860352 13.2175293 C94.59904788 8.87493545 102.87112527 8.70037563 111.453125 10.875 C133.89147203 18.95705865 147.15147987 38.28960718 157 59 C167.45657655 81.77003684 170.73909453 105.7424013 162.08984375 129.5 C158.15533511 138.22064252 150.88902991 145.64593169 142.01953125 149.19140625 C135.18688712 151.49031465 129.17669808 152.694158 122 152 C120.65228516 151.91105469 120.65228516 151.91105469 119.27734375 151.8203125 C106.50045207 150.4102114 94.49005946 143.43361888 85 135 C84.19304687 134.30003906 83.38609375 133.60007812 82.5546875 132.87890625 C72.20139711 123.74458124 62.53703627 114.07794751 54.6796875 102.66796875 C54.29361328 102.11858643 53.90753906 101.5692041 53.50976562 101.00317383 C52.43402112 99.45968414 51.38416827 97.89824314 50.3359375 96.3359375 C48.09282224 93.74365787 48.09282224 93.74365787 44.5390625 92.8515625 C40.9237104 92.66740394 40.9237104 92.66740394 38.375 94.98046875 C35.74004033 98.33050794 33.33749515 101.75163883 31 105.3125 C15.92911337 127.65445105 -2.91180941 150.48784436 -29 160 C-30.19496094 160.47373047 -30.19496094 160.47373047 -31.4140625 160.95703125 C-48.72731099 166.82638329 -66.3831702 162.61373139 -82.375 155.1875 C-99.02759768 146.31965327 -109.61419685 131.68640802 -115.390625 113.96484375 C-121.39322284 93.19795263 -119.45531775 68.99084329 -109.33911133 49.8527832 C-108.25079884 47.88652091 -107.13224458 45.94126637 -106 44 C-105.61537598 43.32839844 -105.23075195 42.65679688 -104.83447266 41.96484375 C-91.37146541 18.67389647 -74.3455311 1.31148914 -48 -6 C-33.54950699 -10.816831 -13.40134789 -5.71143796 0 0 Z " fill="#FFFEFE" transform="translate(191,488)"/>
<path d="M0 0 C13.53 0 27.06 0 41 0 C41 25.41 41 50.82 41 77 C84.23 77 127.46 77 172 77 C172 51.59 172 26.18 172 0 C185.53 0 199.06 0 213 0 C213 59.73 213 119.46 213 181 C199.8 181 186.6 181 173 181 C172.67 180.67 172.34 180.34 172 180 C172 158.22 172 136.44 172 114 C128.44 113.67 84.88 113.34 40 113 C40.36863562 135.0048555 40.36863562 135.0048555 40.74829102 157.00952148 C40.79223129 159.75503917 40.83579593 162.50056291 40.87890625 165.24609375 C40.89895973 166.32311302 40.89895973 166.32311302 40.91941833 167.42189026 C40.95822012 169.52657577 40.99070105 171.63127149 41.02172852 173.73608398 C41.04171402 174.92411118 41.06169952 176.11213837 41.08229065 177.33616638 C41 180 41 180 40 181 C26.8 181 13.6 181 0 181 C0 121.27 0 61.54 0 0 Z " fill="#FF4B45" transform="translate(498,494)"/>
<path d="M0 0 C10.35713 10.97153602 15.84901163 25.51877961 15.78515625 40.4609375 C15.78303383 41.44702499 15.78303383 41.44702499 15.78086853 42.45303345 C15.77531762 44.53123731 15.76277465 46.60932927 15.75 48.6875 C15.74497864 50.10546718 15.74041685 51.52343607 15.73632812 52.94140625 C15.72536437 56.39847322 15.70813421 59.85547567 15.6875 63.3125 C12.17496042 64.11121073 8.93996931 64.43637183 5.34074402 64.43275452 C4.28210144 64.43412918 3.22345886 64.43550385 2.13273621 64.43692017 C0.98187027 64.43332489 -0.16899567 64.42972961 -1.35473633 64.42602539 C-2.57466278 64.42617142 -3.79458923 64.42631744 -5.05148315 64.4264679 C-8.38788192 64.42589142 -11.72421848 64.42088293 -15.06060624 64.41389394 C-18.55063076 64.4076343 -22.04065615 64.40705453 -25.53068542 64.40586853 C-32.13560478 64.40276291 -38.74050753 64.39455989 -45.34541959 64.38451904 C-52.86655096 64.37333401 -60.38768313 64.36784143 -67.90882075 64.36282361 C-83.37672343 64.35237664 -98.84460958 64.3347921 -114.3125 64.3125 C-114.00779785 65.58013184 -113.7030957 66.84776367 -113.38916016 68.15380859 C-113.2177652 68.8668515 -113.04637024 69.57989441 -112.86978149 70.31454468 C-110.7646105 77.86196485 -104.88420474 83.45930621 -98.3125 87.3125 C-85.75182741 93.9542945 -70.96696397 94.82340872 -57.03076172 94.70361328 C-54.81285166 94.68750255 -52.59676258 94.70359158 -50.37890625 94.72265625 C-37.16625759 94.7432698 -24.50043101 92.86769536 -12 88.4375 C-11.25363281 88.18210449 -10.50726562 87.92670898 -9.73828125 87.66357422 C-4.4384154 85.81251813 0.67613002 83.66993156 5.71875 81.1953125 C7.6875 80.3125 7.6875 80.3125 9.6875 80.3125 C9.6875 91.2025 9.6875 102.0925 9.6875 113.3125 C-13.31511083 121.81346487 -34.7680695 126.26831752 -59.3125 127.3125 C-60.09270508 127.34714355 -60.87291016 127.38178711 -61.67675781 127.41748047 C-87.21140223 128.39677484 -112.49680344 123.16101033 -132.3125 106.3125 C-147.89723488 91.75111296 -154.0199242 74.57013317 -155.5 53.6640625 C-155.9667395 36.10298896 -151.50592495 19.00711062 -140.3125 5.3125 C-139.79171875 4.63058594 -139.2709375 3.94867187 -138.734375 3.24609375 C-125.19919357 -13.5414735 -103.54717409 -21.70435129 -82.6875 -24 C-52.53572733 -26.79607936 -22.86490244 -20.77820261 0 0 Z M-106.0625 17.625 C-112.53203916 25.35250511 -116.41949471 33.12973506 -116.3125 43.3125 C-96.6813758 43.42106999 -77.063419 43.38054633 -57.4375 42.875 C-56.64036591 42.85535187 -55.84323181 42.83570374 -55.02194214 42.81546021 C-44.43311172 42.54914773 -33.87918843 42.04692359 -23.3125 41.3125 C-23.90108514 32.18943033 -26.05219097 23.63924836 -32.515625 16.83984375 C-50.24575477 1.76923345 -88.74874935 3.06570968 -106.0625 17.625 Z " fill="#FF4B45" transform="translate(1966.3125,552.6875)"/>
<path d="M0 0 C0.77981232 -0.00696899 1.55962463 -0.01393799 2.36306763 -0.02111816 C4.88012139 -0.03845758 7.3969514 -0.04484372 9.9140625 -0.046875 C10.779104 -0.04788208 11.64414551 -0.04888916 12.53540039 -0.04992676 C73.33368908 -0.00224842 73.33368908 -0.00224842 81.5390625 8.203125 C81.62697225 10.49463917 81.64600288 12.78885024 81.63671875 15.08203125 C81.63459633 16.11202492 81.63459633 16.11202492 81.63243103 17.16282654 C81.62681729 19.36380301 81.61426257 21.56467909 81.6015625 23.765625 C81.59654926 25.25455583 81.59198605 26.74348824 81.58789062 28.23242188 C81.57684343 31.88935575 81.55956963 35.54623058 81.5390625 39.203125 C72.32314805 38.39828789 63.20497311 37.03156017 54.05859375 35.6640625 C41.00825203 33.75286492 28.15274794 32.96550213 14.9765625 32.953125 C13.85595428 32.95161438 13.85595428 32.95161438 12.71270752 32.95007324 C3.88534339 32.95810564 -4.84474806 33.07975541 -13.5859375 34.453125 C-14.29306885 34.56237305 -15.0002002 34.67162109 -15.72875977 34.78417969 C-20.91439482 35.75374266 -27.34914075 37.49815883 -30.73168945 41.83081055 C-31.84844297 43.8542378 -31.84844297 43.8542378 -32.4609375 47.203125 C-31.17347593 50.03896229 -30.1394854 51.76788113 -27.5 53.4609375 C-12.4961415 58.85067308 3.90782245 59.37513125 19.6640625 60.703125 C70.06806134 64.95182214 70.06806134 64.95182214 85.58984375 81.671875 C92.49944432 90.64466292 93.76225636 100.13557287 92.5390625 111.203125 C90.46305859 122.63480445 84.00177072 129.99777904 74.9765625 136.953125 C42.02494823 158.6143412 -8.18799753 152.88569003 -44.62451172 145.80029297 C-51.99433864 144.24868369 -59.21133675 142.24207521 -66.4609375 140.203125 C-66.4609375 129.313125 -66.4609375 118.423125 -66.4609375 107.203125 C-62.8309375 108.193125 -59.2009375 109.183125 -55.4609375 110.203125 C-25.58340246 117.70031734 18.6712482 127.53744602 47.5390625 112.203125 C50.17736915 110.04126199 50.51658444 109.28982608 51.4140625 105.828125 C51.55635431 101.70166253 51.21075504 100.30573569 48.5390625 97.203125 C35.86587232 90.08866755 20.07052591 90.2809701 5.9140625 89.203125 C-5.5812318 88.31843721 -17.03851761 87.40173404 -28.44921875 85.71875 C-29.2495755 85.60233154 -30.04993225 85.48591309 -30.87454224 85.3659668 C-44.97693243 83.17083208 -58.95968217 77.63322137 -68.09375 66.2265625 C-73.40101728 58.37180693 -74.20324348 48.86017392 -72.8359375 39.640625 C-70.17817645 27.30227734 -63.79585252 19.86674565 -53.4609375 13.078125 C-37.55478462 3.65832999 -18.33832859 0.11169255 0 0 Z " fill="#FF4B45" transform="translate(1312.4609375,528.796875)"/>
<path d="M0 0 C12.84457998 12.42389673 19.43324612 29.20785393 20.41699219 46.9152832 C20.68242425 68.68071207 14.40759131 87.4143187 -0.47363281 103.5090332 C-19.40478639 121.3465544 -46.15675796 128.00982158 -71.61035156 127.4465332 C-97.20667544 125.93531113 -121.95399311 119.41825748 -140.16894531 100.1574707 C-150.56112125 87.95795982 -156.92920447 73.3329315 -157.78613281 57.2590332 C-157.83898437 56.30641602 -157.89183594 55.35379883 -157.94628906 54.37231445 C-158.52161312 34.03585968 -152.2226532 16.47753114 -138.78613281 1.2590332 C-122.46107878 -15.96972917 -98.82228332 -23.44585792 -75.63378906 -24.67456055 C-47.61466307 -25.15813937 -21.08697341 -19.60900849 0 0 Z M-110.78613281 24.2590332 C-118.42697354 34.1520868 -120.9650437 45.92959016 -119.78613281 58.2590332 C-118.06401779 68.72088195 -113.44294761 77.96454557 -105.09863281 84.6652832 C-90.68736929 94.59737022 -74.10318606 97.03739746 -57.01269531 94.75512695 C-43.73637963 92.23521888 -33.34110433 86.67699663 -24.93066406 75.8762207 C-18.54013697 66.06163342 -16.42119123 54.81266713 -18.25488281 43.3215332 C-20.72716349 31.78422339 -26.14227847 23.13064807 -35.78613281 16.2590332 C-46.61827313 9.75974901 -56.16979557 7.90705363 -68.66113281 7.9465332 C-69.67304687 7.93041992 -70.68496094 7.91430664 -71.72753906 7.89770508 C-86.78559378 7.88806484 -100.50287206 13.04988498 -110.78613281 24.2590332 Z " fill="#FF4B45" transform="translate(1087.7861328125,552.740966796875)"/>
<path d="M0 0 C1.55905117 1.50300685 3.10172462 3.0232462 4.625 4.5625 C5.32109375 5.22507812 6.0171875 5.88765625 6.734375 6.5703125 C20.23764014 20.33526882 24.15799313 38.61791996 24.04516602 57.30908203 C23.5888706 74.26344512 17.91664332 92.30328846 5.625 104.5625 C4.965 104.5625 4.305 104.5625 3.625 104.5625 C3.625 105.2225 3.625 105.8825 3.625 106.5625 C-10.39459563 120.05480995 -29.22638516 127.45011699 -48.375 129.5625 C-49.29539062 129.67207031 -50.21578125 129.78164063 -51.1640625 129.89453125 C-79.49893662 132.88765176 -106.88519384 126.99552708 -129.8125 109.7265625 C-142.93776692 98.9255616 -151.57800456 82.39890662 -153.375 65.5625 C-154.81092454 45.98758164 -152.44247159 26.86728123 -140.2734375 10.78515625 C-138.06963935 8.25818629 -135.77511399 5.90290966 -133.375 3.5625 C-132.64925781 2.80453125 -131.92351563 2.0465625 -131.17578125 1.265625 C-98.85203912 -30.56420596 -33.25972669 -29.14040274 0 0 Z M-106.55078125 27.2109375 C-115.61475791 38.89512154 -116.62835989 51.33098563 -115.375 65.5625 C-113.00257859 76.32519226 -105.84174491 84.56418246 -97.0625 90.9375 C-83.25055646 99.47623217 -65.76297945 100.38806216 -50.125 97.4375 C-37.76877889 94.42584702 -26.96041587 88.5824967 -20.0625 77.6875 C-19.13473819 75.99629387 -18.23658722 74.28835851 -17.375 72.5625 C-16.86259766 71.55123047 -16.86259766 71.55123047 -16.33984375 70.51953125 C-12.46653555 61.20557618 -12.98376842 48.05569612 -16.40625 38.69140625 C-22.21423285 25.92789556 -31.55917949 18.76190086 -44.375 13.5625 C-65.51539025 6.8227369 -91.00482903 10.87665099 -106.55078125 27.2109375 Z " fill="#FF4B45" transform="translate(889.375,549.4375)"/>
<path d="M0 0 C5.67830078 -0.02464705 11.35657069 -0.04283462 17.03491211 -0.05493164 C18.96818585 -0.05997256 20.90145576 -0.06680519 22.8347168 -0.07543945 C25.60726872 -0.08751565 28.37977041 -0.09323057 31.15234375 -0.09765625 C32.45702858 -0.10539818 32.45702858 -0.10539818 33.78807068 -0.11329651 C35.85905814 -0.11349185 37.92994324 -0.06208168 40 0 C41.87173479 1.87173479 41.14467946 5.0498072 41.15771484 7.54492188 C41.16279556 8.22977158 41.16787628 8.91462128 41.17311096 9.620224 C41.18384438 11.11527715 41.1924528 12.61034666 41.19923019 14.10542297 C41.2110319 16.48780591 41.23049867 18.87000858 41.25234985 21.25231934 C41.31384609 28.02931492 41.36755717 34.80630171 41.40136719 41.58349609 C41.42259911 45.72807537 41.45814448 49.87234147 41.50212479 54.01673889 C41.5160894 55.58240505 41.52496191 57.1481268 41.52817917 58.71385193 C41.56564416 75.23454227 42.12756293 94.66982136 54.08203125 107.3125 C61.56250441 113.89409757 71.17869763 115.45337281 80.84765625 115.24609375 C92.58006386 114.33018089 101.12855497 110.32847405 109.1875 101.8125 C123.5328488 84.81483025 127.00057021 62.94818991 127.31640625 41.40625 C127.3475779 39.62534973 127.3475779 39.62534973 127.37937927 37.80847168 C127.44443855 34.03903648 127.5035559 30.26953529 127.5625 26.5 C127.60572675 23.93488918 127.64934233 21.36978488 127.69335938 18.8046875 C127.80080201 12.53652479 127.90019971 6.26830763 128 0 C141.53 0 155.06 0 169 0 C169 46.86 169 93.72 169 142 C154.48 142 139.96 142 125 142 C125 131.87670068 125 131.87670068 125.3671875 128.21801758 C125.44727051 127.39719193 125.52735352 126.57636627 125.60986328 125.73066711 C125.74110596 124.45052986 125.74110596 124.45052986 125.875 123.14453125 C125.96378418 122.23926193 126.05256836 121.33399261 126.14404297 120.40129089 C126.42524649 117.53793546 126.71211279 114.67519056 127 111.8125 C127.28736874 108.93905363 127.57341376 106.06549914 127.85595703 103.1915741 C128.03108405 101.4115895 128.20899911 99.63187627 128.39013672 97.85249329 C128.81506981 93.54724024 129.09837413 89.3332926 129 85 C128.78085938 86.06476563 128.56171875 87.12953125 128.3359375 88.2265625 C124.32237349 106.93701296 117.25854755 124.53500599 101 136 C82.66311817 146.90538775 62.11263617 149.55452268 41.375 144.91015625 C28.85611715 141.53411493 18.0860227 134.52153322 11.375 123.27734375 C-2.03531978 97.83126197 -0.41106645 69.35128258 -0.20599365 41.4730835 C-0.17487672 36.78613379 -0.16151291 32.09913338 -0.14648438 27.41210938 C-0.11465508 18.27460901 -0.06369876 9.13733005 0 0 Z " fill="#FF4B45" transform="translate(1427,533)"/>
<path d="M0 0 C11.88 0 23.76 0 36 0 C36.33 12.87 36.66 25.74 37 39 C49.87 39 62.74 39 76 39 C76 48.9 76 58.8 76 69 C62.8 69 49.6 69 36 69 C36.09100124 80.5109267 36.09100124 80.5109267 36.20898438 92.02148438 C36.26313973 96.72189263 36.31425553 101.42218596 36.34643555 106.12280273 C36.37260435 109.91611028 36.41310031 113.70902791 36.46318626 117.50209236 C36.47976385 118.94317811 36.49133449 120.38433116 36.49761391 121.82549858 C36.53530535 129.68671315 36.87666394 136.68626848 40 144 C40.33 144.99 40.66 145.98 41 147 C49.43836215 149.81278738 56.85934324 149.3693577 65.3125 147.0625 C66.01439453 146.88009766 66.71628906 146.69769531 67.43945312 146.50976562 C70.32564201 145.75313841 73.16889033 144.94370322 76 144 C76.14857681 148.34149055 76.25731436 152.68162732 76.32958984 157.02490234 C76.35972248 158.50140156 76.40063879 159.97772232 76.45263672 161.45361328 C76.52562629 163.57889779 76.55948491 165.70181393 76.5859375 167.828125 C76.63306885 169.7447998 76.63306885 169.7447998 76.68115234 171.70019531 C76 175 76 175 73.1875 177.37133789 C65.46418604 181.31758693 55.70720925 183.64032182 47 184 C45.80761719 184.0515625 44.61523438 184.103125 43.38671875 184.15625 C29.61249777 184.55689441 18.25162933 182.66863378 7.84375 172.99609375 C-4.68509826 159.929627 -5.30726052 144.51807423 -5.1953125 127.3984375 C-5.19157557 125.70879281 -5.18873181 124.01914593 -5.18673706 122.32949829 C-5.17915411 117.91381697 -5.1595524 113.49827027 -5.1373291 109.0826416 C-5.11675474 104.5642275 -5.10771072 100.04579134 -5.09765625 95.52734375 C-5.07630069 86.68482761 -5.041163 77.84244614 -5 69 C-11.93 69 -18.86 69 -26 69 C-26.02291394 64.88822073 -26.04283951 60.77660342 -26.05493164 56.66479492 C-26.0599708 55.26504772 -26.06680216 53.8653058 -26.07543945 52.46557617 C-26.0875232 50.45754223 -26.09269807 48.44947043 -26.09765625 46.44140625 C-26.10289307 45.23170166 -26.10812988 44.02199707 -26.11352539 42.77563477 C-26 40 -26 40 -25 39 C-23.21928754 38.91273777 -21.4351686 38.89300959 -19.65234375 38.90234375 C-18.19429321 38.90609009 -18.19429321 38.90609009 -16.70678711 38.90991211 C-14.84098999 38.92356812 -14.84098999 38.92356812 -12.9375 38.9375 C-8.998125 38.958125 -5.05875 38.97875 -1 39 C-0.67 26.13 -0.34 13.26 0 0 Z " fill="#FF4B45" transform="translate(1144,494)"/>
<path d="M0 0 C11.88 0 23.76 0 36 0 C36.33 12.87 36.66 25.74 37 39 C49.87 39 62.74 39 76 39 C76 48.9 76 58.8 76 69 C62.8 69 49.6 69 36 69 C36.09100124 80.5109267 36.09100124 80.5109267 36.20898438 92.02148438 C36.26313973 96.72189263 36.31425553 101.42218596 36.34643555 106.12280273 C36.37260435 109.91611028 36.41310031 113.70902791 36.46318626 117.50209236 C36.47976385 118.94317811 36.49133449 120.38433116 36.49761391 121.82549858 C36.53530535 129.68671315 36.87666394 136.68626848 40 144 C40.33 144.99 40.66 145.98 41 147 C49.43836215 149.81278738 56.85934324 149.3693577 65.3125 147.0625 C66.01439453 146.88009766 66.71628906 146.69769531 67.43945312 146.50976562 C70.32564201 145.75313841 73.16889033 144.94370322 76 144 C76.14857681 148.34149055 76.25731436 152.68162732 76.32958984 157.02490234 C76.35972248 158.50140156 76.40063879 159.97772232 76.45263672 161.45361328 C76.52562629 163.57889779 76.55948491 165.70181393 76.5859375 167.828125 C76.63306885 169.7447998 76.63306885 169.7447998 76.68115234 171.70019531 C76 175 76 175 73.1875 177.37133789 C65.46418604 181.31758693 55.70720925 183.64032182 47 184 C45.80761719 184.0515625 44.61523438 184.103125 43.38671875 184.15625 C31.01268154 184.51616791 19.75981469 183.36036268 10 175 C-0.16713994 165.21344819 -4.94997217 153.96073769 -5.31746197 139.80099106 C-5.35826649 135.86135205 -5.33134024 131.92392084 -5.29296875 127.984375 C-5.28736067 126.27517065 -5.28309631 124.56596142 -5.28010559 122.85675049 C-5.26875211 118.3982773 -5.23936893 113.94010594 -5.20599365 109.48175049 C-5.17508578 104.91626058 -5.16155636 100.35072103 -5.14648438 95.78515625 C-5.11448822 86.85661814 -5.06180017 77.9283816 -5 69 C-11.93 69 -18.86 69 -26 69 C-26.02291394 64.88822073 -26.04283951 60.77660342 -26.05493164 56.66479492 C-26.0599708 55.26504772 -26.06680216 53.8653058 -26.07543945 52.46557617 C-26.0875232 50.45754223 -26.09269807 48.44947043 -26.09765625 46.44140625 C-26.10289307 45.23170166 -26.10812988 44.02199707 -26.11352539 42.77563477 C-26 40 -26 40 -25 39 C-23.14825294 38.84213692 -21.2909089 38.74892644 -19.43359375 38.68359375 C-18.42095459 38.64548584 -17.40831543 38.60737793 -16.36499023 38.56811523 C-15.06891846 38.52501221 -13.77284668 38.48190918 -12.4375 38.4375 C-8.333125 38.293125 -4.22875 38.14875 0 38 C0 25.46 0 12.92 0 0 Z " fill="#FF4B45" transform="translate(1723,494)"/>
<path d="M0 0 C13.2 0 26.4 0 40 0 C40 46.86 40 93.72 40 142 C26.47 142 12.94 142 -1 142 C-1.02254622 123.63315332 -1.0409787 105.26631778 -1.05181217 86.89946079 C-1.05697533 78.37201506 -1.06401841 69.84457851 -1.07543945 61.31713867 C-1.08538568 53.88733745 -1.09185328 46.45754287 -1.09408849 39.02773517 C-1.09539571 35.0912668 -1.09848221 31.15481747 -1.10573006 27.21835518 C-1.11248931 23.51746673 -1.11461716 19.81660525 -1.11310768 16.11571121 C-1.11351638 14.10129198 -1.11891207 12.08687573 -1.12442017 10.07246399 C-1.1230455 8.8846936 -1.12167084 7.69692322 -1.12025452 6.47315979 C-1.12117631 5.4342991 -1.1220981 4.3954384 -1.12304783 3.32509708 C-1 1 -1 1 0 0 Z " fill="#FF4B45" transform="translate(1631,533)"/>
<path d="M0 0 C5.23913511 4.19130809 7.51055436 8.84306441 8.28515625 15.421875 C8.54362517 22.65900482 7.30940322 29.03076729 2.8125 34.8125 C-4.52990119 40.52325648 -11.52570514 42.5796545 -20.8359375 41.74609375 C-27.88103608 40.67485273 -33.05495733 38.86323593 -38.25 33.8125 C-42.40594592 27.1333012 -44.07945584 20.31360044 -42.49609375 12.51953125 C-40.86484415 6.20892564 -38.85262395 2.34023025 -33.109375 -1.1484375 C-22.98781133 -6.59553856 -9.6009865 -6.7503373 0 0 Z " fill="#FF4B45" transform="translate(1668,479)"/>
<path d="M0 0 C3.81834949 2.97060584 6.62043922 6.2382751 9 10.4375 C9.433125 11.200625 9.86625 11.96375 10.3125 12.75 C11.99300075 19.31923021 11.79565142 25.60353971 8.3984375 31.5546875 C4.53599498 36.75495927 -0.86279208 41.3082646 -7 43.4375 C-14.3908704 44.41834448 -20.30759609 42.63535947 -26.625 38.875 C-32.14289252 33.21189978 -35.37286163 27.85291249 -35.625 19.8125 C-35.2425563 12.87969087 -33.9780498 8.24069183 -28.87109375 3.43359375 C-20.73335545 -3.20261788 -9.53298002 -6.0242025 0 0 Z " fill="#FF4B45" transform="translate(191,541.5625)"/>
<path d="M0 0 C6.7565595 4.00134657 10.80007426 10.65412904 13.24609375 17.9921875 C13.8507785 25.70191803 11.9018458 31.26347437 7.12109375 37.2421875 C2.06645003 42.62533007 -3.44313035 45.13030893 -10.81640625 45.4921875 C-17.62364362 45.16501795 -22.48313547 42.67961927 -27.06640625 37.6796875 C-32.18435349 31.05564135 -33.45269061 25.5631742 -33.22265625 17.21484375 C-32.21369448 10.27823161 -28.12239486 5.75085247 -22.81640625 1.4296875 C-16.02185964 -2.67463253 -7.35572422 -2.69188206 0 0 Z " fill="#FF4B45" transform="translate(299.75390625,542.0078125)"/>
<path d="M0 0 C4.21945935 0.71108609 5.98348311 2.87637958 8.58984375 6.03125 C9.30696533 6.85665283 9.30696533 6.85665283 10.03857422 7.69873047 C11.4242826 9.29784075 12.78873508 10.91330299 14.15234375 12.53125 C15.35807209 13.90853487 16.56597167 15.28392638 17.77734375 16.65625 C18.30972656 17.27113281 18.84210938 17.88601563 19.390625 18.51953125 C22.29178205 21.83238243 25.26693262 25.07857033 28.234375 28.33203125 C31.35305131 31.90802873 32.40687039 33.82250712 32.15234375 38.53125 C16.35530938 45.28182651 3.57658987 48.11239391 -12.84765625 41.53125 C-24.08705019 36.29185606 -24.08705019 36.29185606 -27.84765625 32.53125 C-27.56227029 28.73153973 -25.42369421 26.48806618 -23.03515625 23.65625 C-21.83052734 22.22152344 -21.83052734 22.22152344 -20.6015625 20.7578125 C-19.68408588 19.68187182 -18.76608601 18.60637718 -17.84765625 17.53125 C-16.79420128 16.28912148 -15.74081836 15.04693186 -14.6875 13.8046875 C-3.4946539 0.65195189 -3.4946539 0.65195189 0 0 Z " fill="#FFFDFC" transform="translate(235.84765625,596.46875)"/>
<path d="M0 0 C4.8776788 0.86076685 9.39320873 2.4425418 14.0625 4.0625 C25.57978782 7.73823015 39.28338761 7.17441517 50.75 3.65625 C53 3 53 3 56 3 C54.3392515 7.14683867 51.34032872 10.06731286 48.3125 13.25 C47.22705863 14.40679638 46.1424205 15.56434697 45.05859375 16.72265625 C44.53378418 17.28227051 44.00897461 17.84188477 43.46826172 18.41845703 C41.01564423 21.06030208 38.65614215 23.78005377 36.3046875 26.51171875 C33.30822171 29.9298429 33.30822171 29.9298429 30.78833008 30.50341797 C26.48579641 29.7266187 24.3571906 27.01468364 21.38671875 23.9453125 C20.77230423 23.32856659 20.15788971 22.71182068 19.52485657 22.0763855 C18.23062815 20.77242418 16.9424319 19.46245178 15.65991211 18.14697266 C13.68967415 16.12722878 11.70128901 14.12686316 9.70898438 12.12890625 C8.45462543 10.86046553 7.20133242 9.59096964 5.94921875 8.3203125 C5.3524382 7.71816925 4.75565765 7.116026 4.14079285 6.49563599 C0 2.23324998 0 2.23324998 0 0 Z " fill="#FFFCFB" transform="translate(210,645)"/>
</svg>
