<svg xmlns="http://www.w3.org/2000/svg" width="1472" height="471"><path fill="#2C7DDF" d="M329.125 28.313c14.363 13.375 23.945 31.228 25.002 51.066.775 26.281-5.038 50.09-22.127 70.621l-1.426 1.832c-8.788 10.966-23.42 20.753-37.558 22.992L291 175l-2.328.207c-4.958.222-8.475-.31-12.672-3.207-2.835-3.11-3.006-4.689-2.922-8.926.804-6.3 3.746-11.546 6.61-17.137 9.083-18.359 15.51-35.124 15.625-55.875.005-.97.01-1.942.017-2.943-.059-5.732-.77-10.61-2.33-16.119l-.46-3.133c-1.809-9.616-8.055-18.806-15.856-24.582-15.245-9.757-33.112-9.826-50.36-6.316-24.458 5.516-46.744 20.238-64.59 37.414a113 113 0 0 1-6.609 5.867C151.319 83.471 148.207 87.196 145 91l-2.465 2.805c-47.718 54.58-70.579 129.041-66.312 200.947 2.99 40.27 12.667 79.845 43.027 108.373 22.58 19.343 50.492 22.901 79.274 20.68C227.904 420.574 254.33 403.072 275 383c.545-.52 1.09-1.04 1.653-1.575 32.143-30.633 53.292-72.296 68.345-113.547 6.825-18.644 16.072-36 28.002-51.878l2.055-2.79c18.847-24.273 44.503-45.383 75.726-49.737 15.393-1.416 29.942.815 42.531 10.214C502.119 181.252 506.31 190.152 510 201c2.728-3.35 5.272-6.775 7.75-10.312 9.629-13.211 21.983-22.686 38.422-25.336 9.175-1.141 18.644-.821 26.328 4.96 4.117 4.427 4.758 8.408 4.697 14.356-.383 4.533-1.778 8.8-3.072 13.144l-.947 3.29a2608 2608 0 0 1-4.282 14.644c-30.38 84.623-30.38 84.623-29.013 170.207 1.914 3.105 3.764 4.735 7.117 6.047 9.671.662 17.46-3.597 24.567-9.775 37.926-34.4 56.003-95.024 66.308-143.475l.44-2.059c2.71-12.764 4.87-25.345 4.708-38.425-.128-17.92-.128-17.92 4.079-23.586 7.022-6.214 16.756-8.774 25.898-9.68l2.11-.215c7.464-.373 15.413 1.928 21.296 6.59 9.825 10.018 11.144 23.84 11.032 37.188l-.017 3.787c-.208 13.09-2.083 25.793-4.421 38.65l-.484 2.722A590 590 0 0 1 710 267l1.019-1.674C721.223 248.601 731.755 232.311 744 217l2.402-3.027c18.203-22.469 41.795-46.954 71.973-50.786 11.111-.736 21.347 1.738 30.07 8.79 9.99 9.33 14.978 22.165 15.697 35.696.901 28.128-4.816 54.029-11.414 81.143a1086 1086 0 0 0-5.218 22.653q-.646 2.928-1.302 5.854c-2.778 12.695-4.56 25.041-4.52 38.052l-.05 3.363c-.004 7.095.054 13.831 5.26 19.23 3.98 1.954 7.79 1.693 12.102 1.032 6.238-2.223 11.067-5.683 16-10h2v-2h2l.758-1.746c1.411-2.561 3.059-4.24 5.117-6.317 30.866-33.883 44.226-83.93 47.363-128.507 1.578-21.491 6.2-42.092 22.367-57.489 10.698-8.673 24.446-10.648 37.86-9.695 5.474.765 9.67 1.489 13.535 5.754 3.254 6.508.73 16.46-.2 23.486-1.953 15.565-2.006 31.35-1.987 47.014l.001 2.838c-3.296 70.657-3.296 70.657 17.561 135.037 2.574 1.871 2.574 1.871 5.875 1.875 31.1-10.367 52.229-62.822 66.25-89.562l1.567-2.986 1.464-2.815 1.3-2.494c1.185-2.426 2.196-4.875 3.169-7.393l2-5-2.625-1.46-3.375-1.915-3.375-1.898L1091 262v-2l-1.738-.766c-12.804-6.988-22.02-24.817-26.262-38.234-7.115-24.855-6.053-52.086 6.02-75.253 3.711-6.619 8.337-12.668 13.98-17.747l1.66-1.637c10.273-9.724 23.429-14.198 37.465-14.738 11.761.463 22.562 4.457 30.688 13.125 13.21 16.351 13.641 37.839 11.562 57.813-3.382 23.605-10.198 47.857-20.375 69.437 24.8.952 42.69-6.735 61.242-22.96 4.47-4.256 8.14-9.059 11.84-13.976 4.186-5.523 8.756-10.61 13.54-15.619 1.353-1.419 2.69-2.854 4.026-4.289 18.216-19.017 41.74-31.475 68.352-32.156 14.967.254 28.155 4.306 39 15 5.982 6.824 9.102 14.48 12 23l2.309-3.184c10.961-14.97 22.466-28.523 41.597-32.406 8.73-1.157 18.037-1.409 26.094 2.59 4.303 3.35 6.118 7.71 7 13-.162 7.384-1.981 14.164-4.14 21.18q-.99 3.306-1.977 6.614l-1.054 3.493C1392.576 299.55 1392.576 299.55 1394 389c1.88 3.383 1.88 3.383 5 5 6.833 1.284 12.295-.709 18.047-4.266 18.817-13.211 29.574-38.465 36.913-59.442 2.214-6.288 2.214-6.288 5.04-8.292 2.875-.562 2.875-.562 6 0 4.4 4.3 6.725 8.192 7.336 14.426.213 21.239-7.017 40.016-20.336 56.574l-2.21 2.89c-4.018 5.193-4.018 5.193-5.79 7.11h-2l-1 3a102 102 0 0 1-6.187 5.188l-1.899 1.473c-19.237 14.613-39.827 21.242-63.914 19.339-12.123-2.138-21.804-7.965-30-17l-2-2c-5.131-8.02-9.027-15.977-11.992-25.04-.84-2.468-1.77-4.673-3.008-6.96l-1.215 2.02c-13.796 22.367-32.672 40.813-58.469 48.007-16.915 3.82-34.608 2.977-50.023-5.57-18.603-11.821-28.056-30.707-32.798-51.691-7.325-35.673-2.274-74.022 10.505-107.766l-3.156 1.61c-18.223 9.083-34.588 11.109-54.844 11.39l-1.695 3.531c-18.886 38.815-43.2 75.231-72.235 107.18-2.56 2.832-5.066 5.71-7.562 8.598-2.908 3.262-2.908 3.262-4.508 4.691h-2l-1 3c-3.464 3.24-7.258 6.088-11 9l-2.613 2.086c-11.811 9.069-25.125 16.587-40.387 14.914-13.941-4.693-21.803-16.33-28.126-28.914-12.866-26.864-18.419-56.867-22.504-86.17C938.185 315 938.185 315 937 314l-.835 2.053c-13 31.787-28.381 61.809-52.165 86.947l-2.55 2.746c-13.15 13.72-30.182 25.219-49.641 26.457-14.39.2-27.587-2.666-38.809-12.203v-2l-3-1c-16.465-20.782-18.028-47.275-15.33-72.76 2.145-17.418 6.17-34.597 9.804-51.75 1.33-6.293 2.644-12.589 3.95-18.886q.654-3.135 1.317-6.265c5.431-21.83 5.431-21.83 2.259-43.339-3.486-1.06-5.728-1.45-9.2-.223-13.141 7.147-23.27 20.236-31.8 32.223l-1.298 1.802c-31.775 44.294-53.92 94.96-68.722 147.214l-1.026 3.618q-.908 3.202-1.807 6.408l-.776 2.7-.654 2.308c-1.82 4.953-5.63 7.056-10.154 9.2-8.807 3.844-20.049 4.41-29.063 1.063-4-1.859-6.712-3.828-9.5-7.313l-1.488-1.828C617.414 408.98 617.029 393.61 616 379l-1.8 2.422c-7.411 9.858-15.422 18.9-24.2 27.578l-1.93 1.922c-16.305 15.323-35.43 21.658-57.527 21.351-13.536-.46-24.97-6.15-34.293-15.96-8.963-10.658-13.269-22.188-17.25-35.313l-2.309 3.148c-5.884 7.97-11.837 15.678-18.691 22.852l-1.758 1.914c-14.394 15.197-33.379 22.196-53.742 24.461l-2.535.294c-5.16.486-8.998.06-13.965-1.669l-3.176-.86c-7.373-2.093-13.55-4.726-19.824-9.14l-1.855-1.297c-7.39-5.75-13.337-14.218-17.145-22.703v-2l-2-1c-1.261-2.874-2.052-5.93-2.937-8.937l-.806-2.697c-2.184-7.571-3.593-15.146-4.714-22.936-.342-3.28-.342-3.28-1.543-5.43l-1.766 3.121C316.238 382.563 298.84 406.931 277 425l-2.922 2.547c-23.086 20.085-50 35.127-80.078 41.453l-2.6.564c-9.139 1.769-18.192 1.79-27.463 1.748l-2.487-.004c-12.053-.04-23.676-.526-35.45-3.308l-2.114-.47c-8.702-1.945-17.686-4-25.886-7.53l-1-2-2.027-.344c-4.278-.944-7.74-3.016-11.535-5.156l-2.427-1.364C62.035 440.276 44.782 424.492 33 406v-2h-2l-1.32-2.64-.863-1.725q-.957-1.915-1.909-3.832c-1.442-2.898-2.895-5.78-4.428-8.631C5.017 354.266-.189 315.372-.185 278.6c-.002-2.635-.02-5.27-.04-7.904-.059-17.233 1.544-34.042 4.913-50.947l.39-1.98c5.34-26.86 14.068-52.73 26.954-76.945a442 442 0 0 0 2.96-5.708C51.595 102.947 77.206 72.007 106 50l1.816-1.41C116.576 41.8 125.432 35.612 135 30l2.77-1.727c54.676-33.494 139.587-44.67 191.355.04M1109 151c-10.324 16.876-9.773 38.336-5.505 57.018 2.332 9.155 6.327 21.53 14.505 26.982 6.428-21.806 12.344-44.436 12.5-67.312l.02-2.313c-.151-6.49-1.414-12.977-5.77-17.937-6.262-3.274-11.454-1.876-15.75 3.562m-670.3 75.129c-26.877 37.77-43.213 90.624-36.06 136.867 1.567 8.734 4.856 18.867 12.231 24.41 2.066 1.242 2.066 1.242 5.129 2.594l2 1c8.796.895 15.758.254 23-5 22.814-18.967 35.699-52.15 43-80l.686-2.54c7.188-26.73 16.936-64.153 3.314-90.46-3.317-5.74-6.386-9.206-13-11-17.088-2.903-31.049 11.623-40.3 24.129M1292 216l-2.234 2.172c-17.374 17.866-27.311 43.487-34.766 66.828l-.714 2.169c-9.047 27.606-15.538 62.856-2.735 90.308 3.517 6.124 7.64 11.112 14.449 13.523 6.55 1.607 12.277.906 18.258-2.156 31.41-19.7 44.072-65.531 52.054-99.242a262 262 0 0 0 2.33-11.594c.324-1.82.68-3.635 1.038-5.45 1.494-8.83 1.556-17.683 1.632-26.62l.054-3.803c-.01-11.831-1.07-24.356-8.366-34.135-4.186-4.082-8.244-6.05-14.062-6.437-11.199.334-19.438 6.738-26.938 14.437m-584 53 1 2Z"/><path fill="#6243E5" d="M1146.75 119.277c10.57 8.093 15.879 20.587 17.816 33.496 3.819 33.006-6.598 69.609-20.566 99.227 24.8.952 42.69-6.735 61.242-22.96 4.47-4.256 8.14-9.059 11.84-13.976 4.186-5.523 8.756-10.61 13.54-15.619 1.353-1.419 2.69-2.854 4.026-4.289 18.216-19.017 41.74-31.475 68.352-32.156 14.967.254 28.155 4.306 39 15 5.982 6.824 9.102 14.48 12 23l2.309-3.184c10.961-14.97 22.466-28.523 41.597-32.406 8.73-1.157 18.037-1.409 26.094 2.59 4.303 3.35 6.118 7.71 7 13-.162 7.384-1.981 14.164-4.14 21.18q-.99 3.306-1.977 6.614l-1.054 3.493C1392.576 299.55 1392.576 299.55 1394 389c1.88 3.383 1.88 3.383 5 5 6.833 1.284 12.295-.709 18.047-4.266 18.817-13.211 29.574-38.465 36.913-59.442 2.214-6.288 2.214-6.288 5.04-8.292 2.875-.562 2.875-.562 6 0 4.4 4.3 6.725 8.192 7.336 14.426.213 21.239-7.017 40.016-20.336 56.574l-2.21 2.89c-4.018 5.193-4.018 5.193-5.79 7.11h-2l-1 3a102 102 0 0 1-6.187 5.188l-1.899 1.473c-19.237 14.613-39.827 21.242-63.914 19.339-12.123-2.138-21.804-7.965-30-17l-2-2c-5.131-8.02-9.027-15.977-11.992-25.04-.84-2.468-1.77-4.673-3.008-6.96l-1.215 2.02c-13.796 22.367-32.672 40.813-58.469 48.007-16.915 3.82-34.608 2.977-50.023-5.57-18.603-11.821-28.056-30.707-32.798-51.691-7.325-35.673-2.274-74.022 10.505-107.766l-3.156 1.61c-18.223 9.083-34.588 11.109-54.844 11.39l-1.695 3.531c-18.886 38.815-43.2 75.231-72.235 107.18-2.56 2.832-5.066 5.71-7.562 8.598-2.908 3.262-2.908 3.262-4.508 4.691h-2l-1 3c-3.464 3.24-7.258 6.088-11 9l-2.613 2.086c-11.811 9.069-25.125 16.587-40.387 14.914-13.941-4.693-21.803-16.33-28.126-28.914-12.866-26.864-18.419-56.867-22.504-86.17C938.185 315 938.185 315 937 314l-.835 2.053c-13 31.787-28.381 61.809-52.165 86.947l-2.55 2.746c-13.15 13.72-30.182 25.219-49.641 26.457-14.39.2-27.587-2.666-38.809-12.203v-2l-3-1c-16.034-20.237-18.002-45.928-15.465-70.824 1.463-12.521 3.808-24.86 6.465-37.176l1.938-.312L785 308c1.044-3.133.934-3.99 0-7l3-1 1-2 1 2 1.61-.875 2.14-1.125 2.11-1.125C798 296 798 296 802 296l1-3 3 2c3.815-.103 5.043-1.038 7.938-3.625C817 289 817 289 820.375 289.188L823 290l.313-1.937L824 286l3-1v3l4-4c3 1 3 1 4 2l2-4h2v4l2-4 3 3 1-1c1.875.063 1.875.063 4 1 2.36 3.52 3.073 5.355 2.594 9.61a162 162 0 0 1-1.094 4.14 942 942 0 0 0-1.176 4.754l-.65 2.625c-1.287 5.486-2.31 11.024-3.361 16.558l-.649 3.365c-.57 2.98-1.122 5.963-1.664 8.948l-.629 3.46c-.575 5.49-.596 10.962-.621 16.478l-.062 3.458c-.069 10.645-.069 10.645 5.21 19.573 3.98 1.953 7.79 1.692 12.102 1.031 6.238-2.223 11.067-5.683 16-10h2v-2h2l.758-1.746c1.411-2.561 3.059-4.24 5.117-6.317 30.866-33.883 44.226-83.93 47.363-128.507 1.578-21.491 6.2-42.092 22.367-57.489 10.698-8.673 24.446-10.648 37.86-9.695 5.474.765 9.67 1.489 13.535 5.754 3.254 6.508.73 16.46-.2 23.486-1.953 15.565-2.006 31.35-1.987 47.014l.001 2.838c-3.296 70.657-3.296 70.657 17.561 135.037 2.574 1.871 2.574 1.871 5.875 1.875 31.1-10.367 52.229-62.822 66.25-89.562l1.567-2.986 1.464-2.815 1.3-2.494c1.185-2.426 2.196-4.875 3.169-7.393l2-5-2.625-1.46-3.375-1.915-3.375-1.898L1091 262v-2l-1.738-.766c-12.804-6.988-22.02-24.817-26.262-38.234-7.115-24.855-6.053-52.086 6.02-75.253 3.711-6.619 8.337-12.668 13.98-17.747l1.66-1.637c16.483-15.603 42.74-19.706 62.09-7.086M1109 151c-10.324 16.876-9.773 38.336-5.505 57.018 2.332 9.155 6.327 21.53 14.505 26.982 6.428-21.806 12.344-44.436 12.5-67.312l.02-2.313c-.151-6.49-1.414-12.977-5.77-17.937-6.262-3.274-11.454-1.876-15.75 3.562m183 65-2.234 2.172c-17.374 17.866-27.311 43.487-34.766 66.828l-.714 2.169c-9.047 27.606-15.538 62.856-2.735 90.308 3.517 6.124 7.64 11.112 14.449 13.523 6.55 1.607 12.277.906 18.258-2.156 31.41-19.7 44.072-65.531 52.054-99.242a262 262 0 0 0 2.33-11.594c.324-1.82.68-3.635 1.038-5.45 1.494-8.83 1.556-17.683 1.632-26.62l.054-3.803c-.01-11.831-1.07-24.356-8.366-34.135-4.186-4.082-8.244-6.05-14.062-6.437-11.199.334-19.438 6.738-26.938 14.437"/><path fill="#03BBCE" d="M329.125 28.313c14.363 13.375 23.945 31.228 25.002 51.066.775 26.281-5.038 50.09-22.127 70.621l-1.426 1.832c-8.788 10.966-23.42 20.753-37.558 22.992L291 175l-2.328.207c-4.958.222-8.475-.31-12.672-3.207-2.835-3.11-3.006-4.689-2.922-8.926.804-6.3 3.746-11.546 6.61-17.137 9.083-18.359 15.51-35.124 15.625-55.875.005-.97.01-1.942.017-2.943-.059-5.732-.77-10.61-2.33-16.119l-.46-3.133c-1.809-9.616-8.055-18.806-15.856-24.582-15.245-9.757-33.112-9.826-50.36-6.316-24.458 5.516-46.744 20.238-64.59 37.414a113 113 0 0 1-6.609 5.867C151.319 83.471 148.207 87.196 145 91l-2.465 2.805c-47.718 54.58-70.579 129.041-66.312 200.947 2.421 32.62 9.085 64.655 28.113 91.795A44.5 44.5 0 0 1 108 393c-1.812-.187-1.812-.187-4-1-1.75-2.562-1.75-2.562-3-5q-3.174.358-6.348.719-2.664.282-5.336.5l-2.629.219-2.425.183c-2.41.404-4.145 1.183-6.262 2.379v-2l-3 .875c-10.988 3.105-10.988 3.105-16.375 3.438C49.03 394.12 38.837 397.208 30 401 7.079 365.114-.19 320.466-.185 278.6c-.002-2.634-.02-5.268-.04-7.903-.059-17.233 1.544-34.042 4.913-50.947l.39-1.98c5.34-26.86 14.068-52.73 26.954-76.945a442 442 0 0 0 2.96-5.708C51.595 102.947 77.206 72.007 106 50l1.816-1.41C116.576 41.8 125.432 35.612 135 30l2.77-1.727c54.676-33.494 139.587-44.67 191.355.04"/><path fill="#12A3D5" d="m492 173 1.793 1.266c8.65 6.644 13.04 16.566 16.207 26.734 2.728-3.35 5.272-6.775 7.75-10.312 9.629-13.211 21.983-22.686 38.422-25.336 9.175-1.141 18.644-.821 26.328 4.96 4.117 4.427 4.758 8.408 4.697 14.356-.383 4.533-1.777 8.8-3.072 13.144l-.942 3.27c-1.051 3.643-2.116 7.28-3.183 10.918a4833 4833 0 0 0-4.75 16.375l-.625 2.161c-4.378 15.166-8.262 30.452-12.046 45.776l-1.329 5.317-.602 2.482c-1.422 5.663-1.422 5.663-3.648 7.889l-2-2-3-2-1.562 1.875c-2.986 2.603-5.643 3.141-9.438 4.125l-2 2h-2a141 141 0 0 0-5 5l-2 2-2-4c-4.577 2.88-4.577 2.88-8 7l-1-2c-3.137 0-4.136.429-6.812 1.875-3.334 1.737-6.619 2.935-10.188 4.125a192 192 0 0 0-6.266 3.195C494 314 494 314 492 314l-1.437 1.938C489 318 489 318 486 319l-2 2v-8h2l.332-1.722c1.185-6.041 2.506-12.044 3.876-18.046 3.586-15.497 3.586-15.497 5.792-31.232l.199-2.103c1.523-17.08 2.434-38.29-8.797-52.526-3.538-3.46-7.795-4.533-12.59-4.871-10.38.424-19.625 6.391-26.812 13.5-32.976 35.873-47.533 91.356-46 139l-3-3 1-3-3 1-2-1-1 2c-1 1-1 1-4 2l-1 2c-2.918 1.945-4.625 2.453-8 3l-1-3-1.875 2C376 359 376 359 374 359l-1 2h-3c-4.357.45-6.836 3.196-10 6l-2-4-3 3-2-1-1 2-1-2 1-2c-2.974.991-4.795 1.789-7 4.063-2.329 2.256-3.829 2.585-7 2.937v3l2 1h-2l-1 2c-1.538-4.247-2.45-8.278-3.062-12.75-.5-4.27-.5-4.27-1.938-8.25l-1.766 3.121C316.238 382.563 298.84 406.931 277 425l-2.922 2.547c-23.086 20.085-50 35.127-80.078 41.453l-2.6.564c-9.139 1.769-18.192 1.79-27.463 1.748l-2.487-.004c-12.053-.04-23.676-.526-35.45-3.308l-2.114-.47c-8.702-1.945-17.686-4-25.886-7.53l-1-2-2.027-.344c-4.278-.944-7.74-3.016-11.535-5.156l-2.427-1.364C62.035 440.276 44.782 424.492 33 406v-2h-2c.125-1.812.125-1.812 1-4 9.206-5.306 19.931-7.156 30.406-7.719 3.646-.395 6.305-1.705 9.594-3.281h4a205 205 0 0 0 13.813-1.562c2.793-.384 5.379-.438 8.187-.438 1.343-.29 2.682-.61 4-1l1.188 2.875c1.456 3.266 1.456 3.266 4.117 4.004 3.446 1.433 5.122 3.434 7.632 6.183 15.282 15.955 37.378 24.634 59.31 25.141 40.035.443 72.195-13.472 100.753-41.203.545-.52 1.09-1.04 1.653-1.575 32.143-30.633 53.292-72.296 68.345-113.547 6.825-18.644 16.072-36 28.002-51.878l2.055-2.79c19.209-24.74 44.842-45.179 76.445-50.023 14.193-1.067 28.936 1.095 40.5 9.813M360 362l1 2Z"/><path fill="#792BE8" d="M1424 168c4.303 3.35 6.118 7.71 7 13-.162 7.384-1.981 14.164-4.14 21.18q-.99 3.306-1.977 6.614l-1.054 3.493C1392.576 299.55 1392.576 299.55 1394 389c1.88 3.383 1.88 3.383 5 5 6.833 1.284 12.295-.709 18.047-4.266 18.817-13.211 29.574-38.465 36.913-59.442 2.214-6.288 2.214-6.288 5.04-8.292 2.875-.562 2.875-.562 6 0 4.4 4.3 6.725 8.192 7.336 14.426.213 21.239-7.017 40.016-20.336 56.574l-2.21 2.89c-4.018 5.193-4.018 5.193-5.79 7.11h-2l-1 3a102 102 0 0 1-6.187 5.188l-1.899 1.473c-19.237 14.613-39.827 21.242-63.914 19.339-12.123-2.138-21.804-7.965-30-17l-2-2c-5.131-8.02-9.027-15.977-11.992-25.04-.84-2.468-1.77-4.673-3.008-6.96l-1.215 2.02c-13.796 22.367-32.672 40.813-58.469 48.007-16.915 3.82-34.608 2.977-50.023-5.57-18.603-11.821-28.056-30.707-32.798-51.691-2.46-11.984-2.756-23.956-2.745-36.141l.002-2.193c.021-6.892.158-13.606 1.248-20.432l3-1 .875-2.375c1.42-3.313 2.994-3.981 6.125-5.625l2-2 2 5h2l2-2-2-4 3-4 2 3h3l1-3-2-1c1.313-1.5 1.313-1.5 3-3h3c2.559-1.085 4.014-2.014 6-4l5 3 1-3 3 2 2-4 1 1 1-2-2-1c9.012-6.145 9.012-6.145 12.563-5.625L1239 282h3c0 4 0 4-1.5 5.75L1239 289l1.938-.562c.68-.145 1.36-.29 2.062-.438l1 1c1.208-3.623.543-4.641-1-8l5-2 1 3 3-1-3-3 2-4h5l-1 2h-4l3 1 2 2c-.338 6.848-2.003 13.06-3.875 19.625-6.853 25.201-11.599 57.434 1.875 81.375 3.99 6.007 8.222 9.073 15.313 10.813 9.807.498 16.516-3.326 23.785-9.633 26.414-25.143 38.353-68.462 44.544-103.172.324-1.82.68-3.635 1.038-5.45 1.494-8.83 1.556-17.683 1.632-26.62l.054-3.803c-.011-14.518-2.505-26.544-11.366-38.135l4-7h3l1.375-1.437c2.773-2.667 5.916-2.563 9.625-2.563 1.206 2.332 2.165 4.496 3 7h5a149 149 0 0 0 4.5-6.375c9.495-13.661 21.61-24.806 38.406-28.215 8.73-1.157 18.037-1.409 26.094 2.59"/><path fill="#4E52E8" d="M1004 167c3.503 3.842 3.367 6.56 3.234 11.57-.318 4.658-.823 9.288-1.434 13.917-1.957 15.564-2.002 31.35-1.987 47.013l-.002 2.817c.013 25.924 1.213 51.836 3.189 77.683-3.247-1.624-3.702-4.754-5-8v5l-5-3 1 3h-4c-1.751 1.417-1.751 1.417-3 3l-1-3-1.687 1.438c-2.496 1.686-4.358 2.152-7.313 2.562l6 1a105 105 0 0 1-4 5h-2v-2l-3.875-.437c-2.382-.27-3.97-.485-6.125-1.563l-.312 1.875C970 327 970 327 967 329l-1-2h-7l-1 3h-2l1 4-3-2c-2.622 1.049-3.794 1.65-5.25 4.125L948 338h-3l-1 3-2-1c-.578-2.393-.578-2.393-1.035-5.531l-.514-3.395-.514-3.574q-.512-3.485-1.035-6.969l-.453-3.138c-.206-2.338-.206-2.338-1.449-3.393l-.835 2.053c-13 31.787-28.381 61.809-52.165 86.947l-2.55 2.746c-13.15 13.72-30.182 25.219-49.641 26.457-14.39.2-27.587-2.666-38.809-12.203v-2l-3-1c-16.034-20.237-18.002-45.928-15.465-70.824 1.463-12.521 3.808-24.86 6.465-37.176l1.938-.312L785 308c1.044-3.133.934-3.99 0-7l3-1 1-2 1 2 1.61-.875 2.14-1.125 2.11-1.125C798 296 798 296 802 296l1-3 3 2c3.815-.103 5.043-1.038 7.938-3.625C817 289 817 289 820.375 289.188L823 290l.313-1.937L824 286l3-1v3l4-4c3 1 3 1 4 2l2-4h2v4l2-4 3 3 1-1c1.875.063 1.875.063 4 1 2.36 3.52 3.073 5.355 2.594 9.61a162 162 0 0 1-1.094 4.14 942 942 0 0 0-1.176 4.754l-.65 2.625c-1.287 5.486-2.31 11.024-3.361 16.558l-.649 3.365c-.57 2.98-1.122 5.963-1.664 8.948l-.629 3.46c-.575 5.49-.596 10.962-.621 16.478l-.062 3.458c-.069 10.645-.069 10.645 5.21 19.573 3.98 1.953 7.79 1.692 12.102 1.031 6.238-2.223 11.067-5.683 16-10h2v-2h2l.758-1.746c1.411-2.561 3.059-4.24 5.117-6.317 30.866-33.883 44.226-83.93 47.363-128.507 1.578-21.491 6.2-42.092 22.367-57.489 12.396-10.05 35.157-14.484 49.395-5.941"/><path fill="#2D7AE0" d="M552 287c3.161 1.37 3.993 1.99 6 5-.139 2.406-.139 2.406-.691 5.277l-.61 3.254L556 304l-.687 3.45q-.73 3.63-1.47 7.258c-2.356 11.64-4.411 23.227-5.718 35.042l-.363 3.256c-2.009 17.823-2.009 17.823 3.113 34.557 2.102 2.41 3.212 3.297 6.125 4.437 8.881.608 16.473-2.932 23.121-8.566 4.144-3.671 8.1-7.395 11.527-11.758C594 369 594 369 597.312 368.625L600 369l1-3c2.063-.687 2.063-.687 4-1l-1-4 4-1v4l2 1 2-5 4 2 2-4 4 1 1-4 4 3 2.688-1.937c3-1.869 4.842-2.766 8.312-3.063l1 1 1.375-1.5C642 351 642 351 644 351l1-2h8v-2c11.714-4 11.714-4 15-4 2.08-1.01 4.096-2.115 6.125-3.223L676 339l2 1 3-1 2 2 2-2-1-2c6.625-1.125 6.625-1.125 10 0l1-3h2l1-2 1.875.625L702 333l2-2c1.702 6.62-.078 10.526-2.937 16.563q-1.272 2.83-2.528 5.667l-1.296 2.916c-6.858 15.8-11.574 32.33-16.259 48.87l-1.026 3.618q-.908 3.202-1.807 6.408l-.776 2.7-.654 2.308c-1.82 4.953-5.63 7.056-10.154 9.2-8.807 3.844-20.049 4.41-29.063 1.063-4-1.859-6.712-3.828-9.5-7.313l-1.488-1.828C617.414 408.98 617.029 393.61 616 379c-.594.8-1.189 1.598-1.8 2.422-7.411 9.858-15.422 18.9-24.2 27.578l-1.93 1.922c-16.305 15.323-35.43 21.658-57.527 21.351-13.536-.46-24.97-6.15-34.293-15.96-8.963-10.658-13.269-22.188-17.25-35.313l-2.309 3.148c-5.884 7.97-11.837 15.678-18.691 22.852l-1.758 1.914c-14.394 15.197-33.379 22.196-53.742 24.461l-2.535.294c-5.16.486-8.998.06-13.965-1.669l-3.176-.86c-7.373-2.093-13.55-4.726-19.824-9.14l-1.855-1.297c-7.39-5.75-13.337-14.218-17.145-22.703v-2l-2-1c-6.703-16.608-6.703-16.608-4-25 2.75-1.812 2.75-1.812 6-3l2.688-2.187C349 363 349 363 352 363v3l2.375-1.437c1.514-.902 3.049-1.775 4.625-2.563l1 4h2l1-3c2.063-1.687 2.063-1.687 4-3l2 1 2-2c2.625-.125 2.625-.125 5 0l2-4h2l1 2c5.53-1.543 8.977-3.977 13-8 3.125-.125 3.125-.125 6 0l.375 2.188c.524 2.758.524 2.758 1.555 5.007 1.06 2.777 1.73 5.527 2.362 8.427 1.777 8.018 3.779 16.54 10.58 21.835 2.056 1.259 2.056 1.259 5.128 2.543l2 1c8.771.892 15.772.246 23-5 5.18-4.514 9.598-9.01 13-15q1.362-2.04 2.75-4.062c6.6-9.907 11.743-19.906 16.063-31q1.41-3.582 2.832-7.16c.405-1.04.811-2.079 1.23-3.15 2.168-5.063 4.346-6.238 9.125-8.628a179 179 0 0 0 4-4h2a401 401 0 0 0 6-3q2.491-1.021 5-2l3.625-1.625C514 304 514 304 517 304c4.326-1.442 8.087-3.698 12-6l2 3 1.563-2.312c2.924-3.225 5.38-4.175 9.437-5.688 5.584-2.103 5.584-2.103 10-6M315 374l3 4c-25.093 33.84-25.093 33.84-41 47l-2.922 2.547c-23.086 20.085-50 35.127-80.078 41.453l-2.6.564c-9.139 1.769-18.192 1.79-27.463 1.748l-2.487-.004c-12.053-.04-23.676-.526-35.45-3.308l-2.114-.47c-8.702-1.945-17.686-4-25.886-7.53l-1-2-2.027-.344c-4.278-.944-7.74-3.016-11.535-5.156l-2.427-1.364C62.035 440.276 44.782 424.492 33 406v-2h-2c.125-1.812.125-1.812 1-4 9.206-5.306 19.931-7.156 30.406-7.719 3.646-.395 6.305-1.705 9.594-3.281h4a205 205 0 0 0 13.813-1.562c2.793-.384 5.379-.438 8.187-.438 1.343-.29 2.682-.61 4-1l1.188 2.875c1.456 3.266 1.456 3.266 4.117 4.004 3.446 1.433 5.122 3.434 7.632 6.183 15.282 15.955 37.378 24.634 59.31 25.141 31.54.349 58.336-7.396 83.823-26.258 2.284-1.516 4.138-2.525 6.63-3.543 3.696-1.57 5.561-3.515 8.3-6.402 2.188-1.375 2.188-1.375 4-2l2 1-1-3 2-1 2 2c5.136-1.208 7.879-2.618 12-6 3.313-1.25 3.313-1.25 6-2v3c3.796-.542 5.472-2.201 8-5l1 4 3-1 1-3z"/><path fill="#3F5FE8" d="m703 331 2 2c-.284 5.753-2.229 10.357-4.562 15.563-7.954 18.406-14 37.187-19.458 56.453l-1.026 3.618q-.908 3.202-1.807 6.408l-.776 2.7-.654 2.308c-1.82 4.953-5.63 7.056-10.154 9.2-8.807 3.844-20.049 4.41-29.063 1.063-4-1.859-6.712-3.828-9.5-7.313l-1.488-1.828C617.414 408.98 617.029 393.61 616 379c-.594.8-1.189 1.598-1.8 2.422-7.411 9.858-15.422 18.9-24.2 27.578l-1.93 1.922c-16.305 15.323-35.43 21.658-57.527 21.351-13.536-.46-24.97-6.15-34.293-15.96-6.878-8.121-12.809-17.848-15.25-28.313l1-3v2l7-1 1-3 3 1-.625-1.875L492 380c2.442-2.442 3.64-2.403 7-3l3.688-1.062C506 375 506 375 508 375l1-2 2.313-.375c3.327-.774 4.343-2.207 6.687-4.625 3.997-2.209 6.6-2.023 11-1l-1-3 12-4 2-1a100 100 0 0 1 5 0l-.07 2.676c-.462 15.179-.462 15.179 6.07 28.324 4.632 2.905 8.842 2.11 14 1 9.939-3.244 18.29-11.228 24.648-19.324C594 369 594 369 597.312 368.625L600 369l1-3c2.063-.687 2.063-.687 4-1l-1-4 4-1v4l2 1 2-5 4 2 2-4 4 1 1-4 4 3c1.33-.96 1.33-.96 2.688-1.937 3-1.869 4.842-2.766 8.312-3.063l1 1 1.375-1.5C642 351 642 351 644 351l1-2h8v-2c11.714-4 11.714-4 15-4 2.08-1.01 4.096-2.115 6.125-3.223L676 339l2 1 3-1 2 2 2-2-1-2c6.625-1.125 6.625-1.125 10 0l1-3h2l1-2 4 1z"/><path fill="#12A3D5" d="M72 240h3v2h2l-.219 3.355c-2.905 48.088-1.061 100.377 27.555 141.192A44.5 44.5 0 0 1 108 393c-1.812-.187-1.812-.187-4-1-1.75-2.562-1.75-2.562-3-5q-3.174.358-6.348.719-2.664.282-5.336.5l-2.629.219-2.425.183c-2.41.404-4.145 1.183-6.262 2.379v-2l-3 .875c-10.988 3.105-10.988 3.105-16.375 3.438C49.03 394.12 38.837 397.208 30 401 7.81 366.258-.057 322.567-.295 281.94a336 336 0 0 0-.062-4.183 391 391 0 0 1-.069-6.14l-.044-3.637C0 265 0 265 1.964 263.274L4 262l1-3 3.25.563c3.154.367 4.848.482 7.75-.563l-1-5 3 2c8.066.268 8.066.268 14.688-3.625L35 250c3.125.375 3.125.375 6 1 1.646-1.396 1.646-1.396 3-3h4l1-2 2 1 1-2c2.563-.625 2.563-.625 5-1l2 3 2.75-1c3.25-1 3.25-1 7.25-1l1-3h2zm1 2v4l2-4zm-18 5 1 2Z"/><path fill="#683EE4" d="M1424 168c4.303 3.35 6.118 7.71 7 13-.147 7.628-2.116 14.665-4.316 21.918l-1.008 3.407q-1.062 3.588-2.135 7.172a3848 3848 0 0 0-5.482 18.55l-1.078 3.668c-4.002 13.676-7.61 27.44-10.981 41.285l-2-1-2 2-3-1-1 2-5 1a401 401 0 0 0-6 3h-2l.625-1.875L1386 279l-2-2 1 3c-.437 2.688-.437 2.688-1 5l-7 1v2q-2.183.793-4.375 1.563l-2.46.878C1368 291 1368 291 1366 290l1 3h-3c-1.34.306-2.675.635-4 1v2l-3 1v-2l-2.375 1.5C1352 298 1352 298 1350 298l-1 2h-2l-.875-2.437c-.858-2.696-.858-2.696-3.125-3.563l-1 3-1-1-1.25 1.563L1338 299c-2.11-.41-2.11-.41-4-1a755 755 0 0 1 3.947-23.998l.37-2.057.326-1.796c1.323-7.962 1.575-15.651 1.607-23.711.03-1.923.03-1.923.063-3.885.059-14.698-2.337-26.812-11.313-38.553l4-7h3l1.375-1.437c2.773-2.667 5.916-2.563 9.625-2.563 1.206 2.332 2.165 4.496 3 7h5a149 149 0 0 0 4.5-6.375c9.495-13.661 21.61-24.806 38.406-28.215 8.73-1.157 18.037-1.409 26.094 2.59m-37 107v3l2-1z"/><path fill="#6134F0" d="M1001 311c5.236 4.712 6.196 9.26 7.113 16.11l.586 4.203.302 2.199c2.482 23.776 2.482 23.776 12.999 44.488 3.243 1.678 3.243 1.678 7 1 9.007-4.236 15.552-12.123 21.625-19.75 4.293-5.343 8.153-8.378 14.375-11.25l2 3c2.06.724 2.06.724 4 1l-1-2h-3v-2h2l2-4c2.916 1.307 4.759 2.759 7 5h2v3h2v2l-4 1 2 4h2c-1.374 3.972-3.176 6.73-5.875 9.938l-2.41 2.878A1789 1789 0 0 1 1071 375l-1.53 1.792a1935 1935 0 0 1-6.307 7.348c-2.165 2.509-4.294 5.024-6.362 7.614-2.097 2.615-4.402 4.907-6.801 7.246l-2.187 2.313C1046 403 1046 403 1044 403l-1 3c-3.464 3.24-7.258 6.088-11 9l-2.613 2.086c-11.811 9.069-25.125 16.587-40.387 14.914-13.94-4.692-21.806-16.33-28.126-28.915-7.057-14.73-11.617-30.228-15.374-46.085l-.811-3.383-.72-3.18-.643-2.816c-.447-3.596.058-6.389 1.674-9.621l3-1v-3l2-1 2-3v3l2-3 2 2v-2c2.648-2.362 4.615-3.872 8-5v2l6-1 1-3c3.855-.22 6.509.351 10 2l1 1 3-3-4-2 1-4 2 1v2l7-4 1 2 3-3 2 1v-2l4 2z"/><path fill="#465FE3" d="M1004 167c3.503 3.842 3.367 6.56 3.234 11.57-.318 4.658-.823 9.288-1.434 13.917-2.267 18.034-1.902 36.253-1.8 54.388q.04 7.245.063 14.492l.025 3.32.01 3.09.016 2.7c-.117 2.598-.538 4.99-1.114 7.523h-1v-13l-2-1v-3l-3 2h-3v2c-4.543 1.615-7.313 2.562-12 1l1 7h-2l-1-2-3-1-1 4-4-1-.937 2.875C970 279 970 279 969 281h-4c-1.9.824-1.9.824-4 2-6.692 3-6.692 3-9 3l-3 2-3-3c-2.053 1.842-2.053 1.842-3 4-2.062.625-2.062.625-4 1l1 2c-3.182 2.121-5.5 2.674-9.16 3.438-2.064.473-2.064.473-3.84 2.562l-1-3-3 4-3-1-1 7-3-1 1.355-3.488c8.367-21.877 13.014-43.348 14.645-66.7 1.592-22.64 5.436-44.52 22.605-60.87 12.396-10.05 35.157-14.485 49.395-5.942"/><path fill="#1C93D9" d="m413 273 2 2-.883 2.332c-9 25.216-12.654 51.018-12.117 77.668l-3-3 1-3-3 1-2-1-1 2c-1 1-1 1-4 2l-1 2c-2.918 1.945-4.625 2.453-8 3l-1-3-1.875 2C376 359 376 359 374 359l-1 2h-3c-4.357.45-6.836 3.196-10 6l-2-4-3 3-2-1-1 2-1-2 1-2c-2.974.991-4.795 1.789-7 4.063-2.329 2.256-3.829 2.585-7 2.937v3l2 1h-2l-1 2c-1.538-4.247-2.45-8.278-3.062-12.75-.5-4.27-.5-4.27-1.938-8.25l-.839 1.481c-1.274 2.24-2.561 4.473-3.849 6.707l-1.318 2.33c-2.589 4.467-5.15 8.025-8.994 11.482l-2-2-1.375 1.5C312 378 312 378 310 378l-1 2-2-4-2.312 2.438C302 381 302 381 299 382l1-4c-3.71.995-6.485 2.24-9.5 4.563-3.105 2.333-5.544 3.253-9.5 3.437l-2-1v2l-2.187.188c-3.684 1.064-5.192 3.06-7.813 5.812-2.687 1.875-2.687 1.875-5 3l-2-1 2.387-2.168C293.285 366.46 313.306 336.848 331 302h4v-2h4a309 309 0 0 0 7-2c2.41-.536 4.536-1 7-1l1-2 5-1 1-2h4a221 221 0 0 0 7-2l2.063-.437c2.187-.561 2.187-.561 4.937-2.188 3.288-1.507 3.756-1.348 7-.375 2.05-.775 2.05-.775 4-2 2.063-1.187 2.063-1.187 4-2l3 1 1-2h2l2.813-2.062C405 278 405 278 407.875 278.25L410 279l.938-2.437C412 274 412 274 413 273m-53 89 1 2Z"/><path fill="#4C4DED" d="M837 282h2v4l2-4 3 3 1-1c1.875.063 1.875.063 4 1 2.36 3.52 3.073 5.355 2.594 9.61a162 162 0 0 1-1.094 4.14 942 942 0 0 0-1.176 4.754l-.65 2.625c-1.287 5.486-2.31 11.024-3.361 16.558l-.649 3.365c-.57 2.98-1.122 5.963-1.664 8.948l-.629 3.46c-.575 5.49-.596 10.962-.621 16.478l-.062 3.458c-.036 7.665.24 14.093 5.5 20.104L849 380c-2.762 2.762-5.207 2.579-9 3v-2c-5.66 1.003-5.66 1.003-11 3l1 4-2.375-.062c-2.606-.125-2.606-.125-4.625 1.062l-2-1-1 3h-2c-2.399.9-4.709 1.854-7 3l-2-1-1 3-3-1v2l-1.875.438c-2.158.494-2.158.494-4.125 1.562l-1 2c-1.562-1.187-1.562-1.187-3-3 .313-2.687.313-2.687 1-5l-2 2v3l-4-1 1 1 1 3-5 1v-2h-2v2h-2l-1 3c-12.665-31.588-8.006-63.529-1-96l1.938-.312L785 308c1.044-3.133.934-3.99 0-7l3-1 1-2 1 2 1.61-.875 2.14-1.125 2.11-1.125C798 296 798 296 802 296l1-3 3 2c3.815-.103 5.043-1.038 7.938-3.625C817 289 817 289 820.375 289.188L823 290l.313-1.937L824 286l3-1v3l4-4c3 1 3 1 4 2z"/><path fill="#4866DE" d="M1146.75 119.277c10.266 7.86 15.837 20.098 17.688 32.703.627 6.191.484 11.872-.438 18.02l-2-2-2 2c-1.98 1.692-3.992 3.341-6 5l-2-2-1 5-.687-1.937c-1.166-2.335-1.166-2.335-3.938-2.813L1144 173l.5 2.25c.5 2.75.5 2.75.5 6.75l-8-1 1 6-7 1-2 6-2-1 .438-2.36c1.218-7.347 1.802-14.511 1.874-21.952l.053-2.494c-.005-6.43-.827-13.203-5.115-18.256-3.305-1.378-5.705-1.373-9.25-.938-5.892 2.946-7.929 9.092-10 15-4.695 16.722-3.252 32.278 0 49h-2l-1-3-1.937 1.938L1097 213h-4v2l-3 1-1 1c-2.641 2.641-5.587 3.537-9 5l-2 2-3 3v-3l-2-1-1-1v3l-2 1 .563 2.875C1071 232 1071 232 1070 234l3 1-3 2c-12.191-24.932-15.083-52.694-6.252-79.248 4.137-11.309 10.226-21.628 19.252-29.752l1.66-1.637c16.483-15.603 42.74-19.706 62.09-7.086"/><path fill="#1B94D9" d="M576 217h2c-2.82 11.6-5.969 23.111-9.088 34.633a7382 7382 0 0 0-2.123 7.867l-.702 2.6a584 584 0 0 0-3.483 13.6l-.678 2.788a722 722 0 0 0-1.259 5.293c-1.448 6-1.448 6-3.667 8.219l-2-2-3-2-1.562 1.875c-2.986 2.603-5.643 3.141-9.438 4.125l-2 2h-2a141 141 0 0 0-5 5l-2 2-2-4c-4.577 2.88-4.577 2.88-8 7l-1-2c-3.137 0-4.136.429-6.812 1.875-3.334 1.737-6.619 2.935-10.188 4.125a192 192 0 0 0-6.266 3.195C494 314 494 314 492 314l-1.437 1.938C489 318 489 318 486 319l-2 2v-8h2l.332-1.722c1.185-6.042 2.507-12.044 3.876-18.047 3.286-14.447 5.793-28.443 6.546-43.247C497 247 497 247 498 245a150 150 0 0 1 8-2q2.001-.494 4-1v-2h2l1-2 3 1 1-2c4.475-1.262 4.475-1.262 7 0l2-2 4-1 2-2c2.125.375 2.125.375 4 1v-2l3-1 2-2h4c1.56-.678 3.118-1.361 4.664-2.07 4.295-1.71 8.776-2.83 13.227-4.063 2.825-.788 5.483-1.554 8.109-2.867l2 1 1-2 2 1z"/><path fill="#3475DF" d="M860 199c3 2 3 2 3.673 3.789 3.534 23.873-1.961 48.48-7.298 71.649l-.46 2.003C853.36 287.46 853.36 287.46 851 291c-2.875-4.75-2.875-4.75-4-7l-4 4v-3l-2-2v3h-2v-4h-2c-.681 1.892-.681 1.892-1 4l2 2h-5l-1-2-1-1-5 5v-3l-2-1-1 7-1.25-1.562L820 290c-3.142.413-4.92 1.558-7.312 3.563-3.7 2.753-6.067 2.514-10.688 2.437-2.847.878-5.585 1.922-8.352 3.027-2.547.936-4.977 1.515-7.648 1.973l1 6-5 1c.63-8.19 2.47-16.075 4.267-24.069 3.494-15.572 6.509-31.12 8.733-46.931 3.75-1.125 3.75-1.125 6 0v-2h2l.75-1.687c1.812-3.353 3.781-6.579 7.25-8.313l1 2 4-3 2 1 1-2 2-1 2 1 1-2 3-2 1-1 6 2 1-3h3l2-5c4.75-.125 4.75-.125 7 1l.813-1.937C849 209 849 209 852 208l2-2 3-1 2-1c.656-2.527.656-2.527 1-5"/><path fill="#1B94D9" d="M685.11 164.785c7.464-.373 15.413 1.928 21.296 6.59 9.178 9.358 10.962 22.033 10.955 34.598l-.048 3.777.01 3.824c-.038 6.48-.37 12.234-2.323 18.426l-1-2-4 1v2l-1.875.375c-2.316.497-2.316.497-4.125 2.625-4.516 1.242-4.516 1.242-7 0l-.625 1.875c-1.946 3.008-3.964 3.343-7.375 4.125l-2-1-2 2c-1.91.852-1.91.852-4.062 1.625-1.07.39-1.07.39-2.16.79C677 246 677 246 676 246l-2 2-4 1-2 2c-2.799.864-5.622 1.53-8.469 2.219-2.67.608-2.67.608-4.531 2.781l-1.937.438c-2.443.666-3.425 1.678-5.063 3.562-1.508-1.268-1.508-1.268-3-3 .3-8.94 2.657-17.813 4.416-26.57 2.85-14.19 2.85-14.19 3.584-28.618-.076-21.506-.076-21.506 4.102-27.132 7.696-6.81 18.098-8.886 28.007-9.895"/><path fill="#5442EF" d="m909 346 5 1-2 5 3-2v2h2v-2h2c-.59 4.622-2.534 8.264-4.812 12.25l-1.194 2.1c-16.043 27.638-38.443 55.782-69.79 66.072-15.061 3.952-30.469 1.813-43.864-5.922-2.212-1.418-4.337-2.798-6.34-4.5v-2l-3-1c-1.824-2.11-1.824-2.11-3.687-4.75l-1.887-2.61c-1.54-2.85-1.73-4.457-1.426-7.64h2v-2l3 1 3-1v-2h-2l1-2h2l1 1 1-4h2v6c2.909-.871 2.909-.871 5.063-2.125L803 396l2 1v-2h3l1-2h3l2-2c10.75-4 10.75-4 15-4l-1-4c3-1 3-1 6-1l2-2 2.625 1.125c4.103 1.064 5.433.288 9.375-1.125 1.748-.133 3.499-.234 5.25-.312 9.432-.743 16.58-5.86 23.75-11.688l2 1 1-1h2v-2l4-2-1-2c4.75-3 4.75-3 7-3l1 3 2 1-1-4h2l1-2c5.53-4 5.53-4 8-4l1-3 3-2z"/><path fill="#1B94D9" d="m70.04 324.805 3.585.07 3.602.055L80 325l.364 1.658C85.712 350.751 93.227 372.029 108 392l-3 1-4-6q-3.174.358-6.348.719-2.664.282-5.336.5l-2.629.219-2.425.183c-2.41.404-4.145 1.183-6.262 2.379v-2l-3 .875c-10.988 3.105-10.988 3.105-16.375 3.438C49.03 394.12 38.837 397.208 30 401c-11.137-17.436-19.698-38.526-23-59 3.875-2 3.875-2 5-2l2-1 3 1 5-5 1 2 2.125-.937c2.972-1.099 5.757-1.543 8.875-2.063a206 206 0 0 0 5-2h2c2.32-.766 4.61-1.603 6.906-2.441C50 329 50 329 52 330l2-2c2.625-.125 2.625-.125 5 0l1-2 2.375.625L65 327c2-2 2-2 5.04-2.195"/><path fill="#7135E5" d="M1418 206h3l-1 7 2 1c-2.262 11.485-5.217 22.76-8.243 34.063-.827 3.09-1.645 6.18-2.462 9.273l-1.58 5.922-.736 2.787-.698 2.592-.605 2.268c-.699 2.166-1.608 4.089-2.676 6.095l-1-1-2 2-3-1-1 2-5 1a401 401 0 0 0-6 3h-2l.625-1.875L1386 279l-2-2 1 3c-.437 2.688-.437 2.688-1 5l-7 1v2q-2.183.793-4.375 1.563l-2.46.878C1368 291 1368 291 1366 290l1 3h-3c-1.34.306-2.675.635-4 1v2l-3 1v-2l-2.375 1.5C1352 298 1352 298 1350 298l-1 2h-2l-.875-2.437c-.858-2.696-.858-2.696-3.125-3.563l-1 3-1-1-1.25 1.563L1338 299c-2.11-.41-2.11-.41-4-1 .84-5.685 1.686-11.365 2.73-17.016 1.553-8.407 2.799-16.748 3.536-25.272.523-5.5.523-5.5 2.734-7.712l2-1c.656-2.527.656-2.527 1-5l3 1 2-2h3l2-6c3 1 3 1 5 3l1-4 4 1-1-4 1.688.438c2.426.59 4.861 1.085 7.312 1.562l1-4-3-1v-5l2 1v4h2l2 2c2.167-.833 2.167-.833 3-3h2l-2-4 5-1 1-5h3l-.125 2.375c-.162 2.786-.162 2.786 2.125 4.625 2.075.15 2.075.15 4-1 1.305-2.996 1.305-2.996 2-6h3l1-3 2 1 1 3c1.414-2.639 2.372-5.071 3-8l5 1v-2l1.938-.375L1417 208zm-31 69v3l2-1z"/><path fill="#5851E1" d="M1164 161h1c.84 29.891-7.798 59.5-19 87h-4l-2 3-1-2-2 1-2-2v-1l-4-2-1 2-3 1 2 4 1-2c2.23 2.23 2.881 4.091 4 7l1 1 1-3v3l2 1-6 1-1-3-3 1-1-4-2 3v-3h-2v-2c-3.125 1.635-3.125 1.635-3.687 4.125L1119 258c-3.75 1.125-3.75 1.125-6 0l-1 3-2.187-.625c-3.294-.44-4.827.289-7.813 1.625h-3l4 4-2 2q-2.507-1.426-5-2.875l-2.812-1.617L1091 262v-2l-1.73-.754c-7.922-4.35-14.49-13.186-18.27-21.246l1-3-2-1c-.594-2.649-.742-5.292-1-8l3-1v-3h2l1-2 1 4 3-2 3-1 1-2c2.563-.625 2.563-.625 5-1v-5l3 2h2v-2l3-1c.733-2.015.733-2.015 1-4l1 3 5-4v4h2l1.355 3.254 1.832 4.309.885 2.134c2.119 4.944 4.67 9.021 7.928 13.303 5.754-19.82 5.754-19.82 10-40h2l1-7 4 1 1-2h2v-5c4.75-1.125 4.75-1.125 7 0v-9c2.938.375 2.938.375 6 1l1 2 1-4 2 3h2l.688-1.812C1158 170 1158 170 1160.562 168.625c2.774-1.456 2.774-1.456 3.25-4.812zm-62 50 1 3Z"/><path fill="#593EEF" d="M1001 311c5.236 4.712 6.196 9.26 7.113 16.11l.587 4.204.303 2.2c1.738 12.544 3.86 24.472 7.997 36.486.352 1.329.696 2.66 1 4h-3l-1 2-2 1v-2l-3-1 2-2-1-2-4 1 2-3c-2.324-.185-2.324-.185-5 2l-3 1 2.375.25c2.625.75 2.625.75 3.938 2.813L1007 376l-1.797.246c-2.879.985-3.728 2.346-5.453 4.817l-1.578 2.222L997 385l-5-2 1 4-6 2v-3c-2.44-2.201-2.44-2.201-5-4l-1 5-2.812-.125c-3.346-.146-3.346-.146-6.188 2.125l-3-1v2h-2l-1 2v-3c-1.84 1.84-2.224 4.569-3 7l-2-2c-.226 2.124-.226 2.124 1.5 3.625L964 399l-1 2h-3a285 285 0 0 1-14.937-45.875l-.678-2.828-.6-2.664-.535-2.347c-.374-3.417.219-6.224 1.75-9.286l3-1v-3l2-1 2-3v3l2-3 2 2v-2c2.648-2.362 4.615-3.872 8-5v2l6-1 1-3c3.855-.22 6.509.351 10 2l1 1 3-3-4-2 1-4 2 1v2l7-4 1 2 3-3 2 1v-2l4 2z"/><path fill="#3A72DD" d="M1004 167c3.564 3.872 3.34 6.743 3.2 11.8-.363 5.82-1.007 11.598-1.7 17.387l-.434 3.752q-.525 4.531-1.066 9.061l-2-3-1-1-2 2v-2c-2.124-.226-2.124-.226-3.625 1.5L994 208l-2-1-2 4c-2-1-2-1-3-2l-.25 1.813c-.96 2.798-2.424 3.443-4.75 5.187-.796 2.094-.796 2.094-1 4l-4 1v2h-2v2h-4l-2-2h-2l-1 2-2-1-1.176 1.457c-2.365 2-3.95 2.032-7.011 2.23l-2.731.2L951 228l2 1-1 3h-3c-2.688 2.438-2.688 2.438-5 5l-1-4-1.75.5c-2.25.5-2.25.5-6.25.5l-3 2c.968-23.223 5.01-46.303 22.605-63.059 12.396-10.05 35.157-14.484 49.395-5.941"/><path fill="#0AAED2" d="m492 173 2 2c-.375 2.125-.375 2.125-1 4l2 1 1-2-1 5-2.562.813c-3.503 1.162-3.503 1.162-7.063 2.75-2.563 1.091-4.718 1.773-7.375 2.437l-3.437 1.563c-3.33 1.343-5.08 1.63-8.563 1.437-3.104.684-3.104.684-4.312 3.063C460 197 460 197 456.813 197.25L454 197l-1 3-3-1-1.937 1.5L446 202a70 70 0 0 1-4-1c-2.391.897-4.095 2.072-6.125 3.625C434 206 434 206 432 206l-1.812 1.438c-2.448 1.748-4.269 2.024-7.188 2.562l-2 2v-2h-2l-1 2-2-1v2l-5.957 1.465c-1.7.445-3.376.98-5.043 1.535l-3-.187c-3.113-.15-3.113-.15-4.875 2.187L396 220l-1.75-.625c-2.817-.47-3.872.119-6.25 1.625l-2 2a69 69 0 0 1-4 1l-2.937 1c-2.692.879-5.29 1.46-8.063 2l-2 1-1-3 7-7-1-3c12.148-22.015 40.04-41.934 63.998-48.92 17.909-4.783 38.658-4.92 54.002 6.92"/><path fill="#6B36E9" d="M1251 274h5l-1 2h-4l3 1 2 2c-.338 6.847-2.003 13.06-3.875 19.625-4.321 15.824-6.214 32.017-7.125 48.375h-1q-.252-4.406-.5-8.812l-.145-2.526-.136-2.432-.127-2.237A109 109 0 0 1 1243 326h-3v2l-3 1-2 3v-2l-4 2-3-3-3 1 1 4 1-2 3 1c-1.152 2.468-2.048 4.048-4 6v-2l-4 2v-3l-1 3h-4c-2.593 1.068-3.997 1.997-6 4-3 1.188-3 1.188-6 2l-2-1-1 2c-1.82.238-1.82.238-4.125.313-5.267.445-7.826 2.382-11.875 5.687-2 1-2 1-4.078 1.742-2.17 1.112-2.17 1.112-2.531 3.64l-.141 2.743-.172 2.758L1179 365h-1c-1.016-8.167-1.154-16.253-1.13-24.469.005-2.225 0-4.449-.007-6.674q0-2.152.004-4.306l.004-3.886c.129-3.652.544-7.064 1.129-10.665l3-1 .875-2.375c1.42-3.313 2.994-3.981 6.125-5.625l2-2 2 5h2l2-2-2-4 3-4 2 3h3l1-3-2-1c1.313-1.5 1.313-1.5 3-3h3c2.559-1.085 4.014-2.014 6-4l5 3 1-3 3 2 2-4 1 1 1-2-2-1c9.012-6.145 9.012-6.145 12.563-5.625L1239 282h3c0 4 0 4-1.5 5.75L1239 289l1.938-.562c.68-.145 1.36-.29 2.062-.438l1 1c1.208-3.623.543-4.641-1-8l5-2 1 3 3-1-3-3z"/><path fill="#2B7EDF" d="M716 230a1356 1356 0 0 1-3 21l-.356 2.386c-.315 2.043-.66 4.078-1.019 6.114l-.586 3.469c-1.281 3.738-3.042 5.503-6.039 8.031a155 155 0 0 1-5 2l-2 3-1.687-.812L694 275c-1.13 1.13-2.248 2.271-3.309 3.465-2.974 2.7-6.606 4.3-10.168 6.105-2.296 1.301-3.713 2.56-5.523 4.43a76 76 0 0 1-5 1q-2.509.979-5 2l-2.25.5-1.75.5-1 2-3-1-1 2-7 2-1 2-7 1-1 2c-2.066.852-2.066.852-4.562 1.625-1.24.39-1.24.39-2.504.79L631 306c-1.18-1.496-1.18-1.496-2-4 .826-2.82 1.752-5.363 2.875-8.062 3.318-8.419 6.03-16.94 8.563-25.625l1.071-3.675q1.254-4.317 2.491-8.638l3 2c2.33-.959 2.33-.959 4-4l1 2 2.688-1.437C658 253 658 253 660.813 252.438L663 252l1-2v2l3.25-1.875c2.026-1.169 3.988-2.231 6.125-3.187 1.983-.905 1.983-.905 2.625-3.938l3-1 1 2c3.653-1.25 4.78-1.671 7-5l3 2c4.23-1.688 4.23-1.688 7-5l2.313.125c2.914.096 2.914.096 5.687-2.125l3-2 2 1v-2c2-1 2-1 6-1m-20 46h2l-1 3z"/><path fill="#4060E7" d="M837 282h2v4l2-4 3 3 1-1c1.875.063 1.875.063 4 1 2.414 3.577 3.063 5.415 2.594 9.75A156 156 0 0 1 850.5 299l-1.172 4.742c-.215.84-.43 1.68-.65 2.546-1.231 4.925-2.317 9.884-3.428 14.837l-1.297 5.695-.557 2.446L843 331l-1.812-.937c-2.278-1.165-2.278-1.165-5.188-2.063l1-2a694 694 0 0 0-6.672 2.215c-1.75.59-3.506 1.161-5.265 1.723-2.204.929-2.204.929-3.438 3.062-.892 2.043-.892 2.043.375 4l-6-1-1 5c-3-1-3-1-5-3l-2 3-6-3-2.875 2.5C796.25 343 796.25 343 794 343l-1.312 1.563L791 346c-1.673-.3-3.34-.636-5-1-2.05.775-2.05.775-4 2-2.625 1.188-2.625 1.188-5 2l-2-1c.497-9.117 1.744-17.87 3.563-26.812l.708-3.58q.855-4.306 1.729-8.608l1.938-.312L785 308c1.044-3.133.934-3.99 0-7l3-1 1-2 1 2 1.61-.875 2.14-1.125 2.11-1.125C798 296 798 296 802 296l1-3 3 2c3.815-.103 5.043-1.038 7.938-3.625C817 289 817 289 820.375 289.188L823 290l.313-1.937L824 286l3-1v3l4-4c3 1 3 1 4 2z"/><path fill="#3869E5" d="m723 300-1.434 2.832c-5.364 10.641-10.5 21.381-15.566 32.168l-3-2c-3.278 0-5.06.604-8 2l-1.625 1.625L692 338h-3v-2c-2.802 1.868-4.112 3.303-6 6l-3-2-2 2-2-2-2.312 1.5C671 343 671 343 668 343l-1 2-2-1c-2.009.64-4.008 1.31-6 2-1.994.37-3.993.713-6 1v2c-3.877 1.193-6.916 2-11 2l-1 2a102 102 0 0 1-3 3l-2-3-1 2-2-1-1 3-1-1-2 2-3 1-1-3-2 1 1 2h-2l-1 2-3-2-2 3-4-1-2 4-3-1v-3l-2 3 1 2h-2l-2 2-1-1-1 2h-2l-1 2v-2l-2-1 2.02-2.98c7.513-11.26 13.893-22.936 19.98-35.02l3 1v3l5-1v-2l1.938-.437c2.037-.373 2.037-.373 3.062-1.563v-2l5-1-1 3 2.438-1.312c5.103-2.418 10.218-4.327 15.812-5.188 3.158-.574 5.064-1.778 7.75-3.5 2.628-1.183 4.911-1.984 7.75-2.5l2.25-.5 1-2a88 88 0 0 1 5-1l2-1v2l2-2c2.283-1.338 4.07-2.013 6.688-2.5L689 309l1-2c2.066-.414 2.066-.414 4.563-.625l2.503-.227L699 306l-1-4h2l2 3 2-1h3a125 125 0 0 0 6-4l2 2h2v-2c2.49-1.245 3.41-.777 6 0"/><path fill="#4653EC" d="M691 365h1c-.553 6.794-2.42 12.658-4.687 19.063-3.248 9.381-5.987 18.778-8.234 28.449-1.437 5.936-2.838 11.018-7.903 14.879-10.482 4.834-22.561 7.013-33.676 2.921-8.19-3.804-13.36-11.353-16.875-19.5-.672-3.021-.772-5.726-.625-8.812l3 1v-4h-4c.333-3.08.528-4.575 2.875-6.687L624 391l3-2 1 2 1-2c2.938-1.187 2.938-1.187 6-2l2 1 1-2 1 2h2l1-3 2 1 1-2c1.649-.71 3.32-1.37 5-2a296 296 0 0 0 5.313-2.625l2.675-1.352L660 377l3 2h-2v2l2.75-2.437c2.353-1.974 4.12-3.202 7.25-3.563v-2l5-1 1 2 1.813-1.5C681 371 681 371 684 371v-2l3-1 2-2 2 1z"/><path fill="#2489DB" d="M402 322c1.037 3.11.968 4.334.563 7.5-.893 8.476-.642 16.99-.563 25.5l-3-3 1-3-3 1-2-1-1 2c-1 1-1 1-4 2l-1 2c-2.918 1.945-4.625 2.453-8 3l-1-3-1.875 2C376 359 376 359 374 359l-1 2h-3c-4.357.45-6.836 3.196-10 6l-2-4-3 3-2-1-1 2-1-2 1-2c-2.974.991-4.795 1.789-7 4.063-2.329 2.256-3.829 2.585-7 2.937v3l2 1h-2l-1 2c-1.538-4.247-2.45-8.278-3.062-12.75-.5-4.27-.5-4.27-1.938-8.25l-.839 1.481c-1.274 2.24-2.561 4.473-3.849 6.707l-1.318 2.33c-2.589 4.467-5.15 8.025-8.994 11.482l-2-2-1.375 1.5C312 378 312 378 310 378l-1 2-2-4-2.312 2.438C302 381 302 381 299 382l1-4c-3.71.995-6.485 2.24-9.5 4.563-3.105 2.333-5.544 3.253-9.5 3.437l-2-1v2l-2.187.188c-3.684 1.064-5.192 3.06-7.813 5.812-2.687 1.875-2.687 1.875-5 3l-2-1 2.387-2.168c11.646-10.628 22.759-21.22 32.273-33.836 2-2.561 3.866-4.892 6.34-6.996h3c1.671-.31 3.339-.64 5-1l-1 5h3l-1-6c3.215-1.607 6.436-1.057 10-1l1-2-1 6 2-6c6.625-1 6.625-1 10-1l2-2 3-3 1 4h3l1-3 3 2v-3l2.25-.437L352 340l1.938-.375c2.87-.87 5.408-2.24 8.062-3.625 2.667-1.333 4.167-.671 7 0l2-4 3 2 1-2 7-2 1-2c6.75-.125 6.75-.125 9 1l1-2 3-1 1.5-1.5c1.5-1.5 1.5-1.5 4.5-2.5m-42 40 1 2Z"/><path fill="#238ADB" d="M715 190h1c1.493 6.376 1.184 12.798 1.188 19.313l.037 3.92c.01 6.608-.202 12.457-2.225 18.767l-1-2-4 1v2l-1.875.375c-2.316.497-2.316.497-4.125 2.625-4.516 1.242-4.516 1.242-7 0l-.625 1.875c-1.946 3.008-3.964 3.343-7.375 4.125l-2-1-2 2c-1.91.852-1.91.852-4.062 1.625-1.07.39-1.07.39-2.16.79C677 246 677 246 676 246l-2 2-4 1-2 2c-2.799.864-5.622 1.53-8.469 2.219-2.67.608-2.67.608-4.531 2.781l-1.937.438c-2.443.666-3.425 1.678-5.063 3.562-1.51-1.252-1.51-1.252-3-3 .27-7.015 1.953-13.748 3.563-20.562l.708-3.057A2058 2058 0 0 1 651 226l1.867-.371c2.833-.835 4.108-2.536 6.133-4.629h2l.75-1.937C663 217 663 217 665.125 216.25L667 216l3 4c.185-2.324.185-2.324-2-5 4.625-2.125 4.625-2.125 8-1 1.759-.907 1.759-.907 3.438-2.312 2.46-1.875 4.774-3.34 7.562-4.688l3.063-2.125c3.425-2.186 4.98-1.875 8.937-1.875l1 3 3-1-2-4c2.675-1.663 5-3 8-4l1-1 2-.812c2.194-1.014 2.194-1.014 2.75-3.313z"/><path fill="#386AE5" d="M540 359h7l-.07 2.676c-.145 9.598.29 18.412 4.07 27.324h-2v2h-3l-1.75 1.375c-2.38 1.719-4.503 2.603-7.25 3.625-4.662 1.831-8.213 3.725-12 7a487 487 0 0 1-4 3l-1-2-1.312 1.5C517 407 517 407 514 407v-2h-2l-1 3c-3.185 2.335-6.414 4.345-10 6-.332 3.003-.332 3.003 1.5 4.688L504 420l-1 2c-10.89-7.893-18.666-21.029-22-34l1-3v2l7-1 1-3 3 1-.625-1.875L492 380c2.442-2.442 3.64-2.403 7-3l3.688-1.062C506 375 506 375 508 375l1-2 2.313-.375c3.327-.774 4.343-2.207 6.687-4.625 3.997-2.209 6.6-2.023 11-1l-1-3 12-4z"/><path fill="#248ADB" d="M566 254c1.536 3.956.436 7.378-.582 11.32l-.528 2.121q-.555 2.213-1.123 4.423a799 799 0 0 0-1.699 6.78q-.542 2.151-1.088 4.301l-.508 2.052c-1.241 4.772-1.241 4.772-3.472 7.003l-2-2-3-2-1.562 1.875c-2.986 2.603-5.643 3.141-9.438 4.125l-2 2h-2a141 141 0 0 0-5 5l-2 2-2-4c-4.577 2.88-4.577 2.88-8 7l-1-2c-3.137 0-4.136.429-6.812 1.875-3.334 1.737-6.619 2.935-10.188 4.125a192 192 0 0 0-6.266 3.195C494 314 494 314 492 314l-1.437 1.938C489 318 489 318 486 319l-2 2v-8h2l.297-1.59c1.646-8.529 3.684-16.963 5.703-25.41l3 1 1 3c2.224-1.925 2.224-1.925 3-5 2.49-2.49 4.63-3.087 8-4l2 1a88 88 0 0 0 5-3c3.443-2.087 3.443-2.087 6-1.687l2 .687 2.25.563L526 279l.25-2.312c.75-2.688.75-2.688 2.625-4.563L531 271l3 1v2l3-1v-2l3.438-.375L544 270l1-2h2l1-2 7-1 1-2 4 2 3-7h2z"/><path fill="#4655EA" d="m837 326 1 1 2 .688c2 1.312 2 1.312 2.813 4 .164 2.904-.113 5.33-.548 8.183-.54 4.335-.646 8.705-.827 13.067l-.131 2.939q-.159 3.561-.307 7.123l-4-5-1 1q-2.992.55-6 1v-2l-6-1v2l-3 2 1 2-4-2 .563-2.875c.724-3.024.724-3.024-.563-5.125-3.867.41-3.867.41-6.625 3L810 358a85 85 0 0 1-7 2l1 4h-3c-1.583 1.417-1.583 1.417-3 3l-2 1-1 3c-2.062 1.688-2.062 1.688-4 3l-1-1-2 2h-5l1 6-2.312.313c-2.914.745-3.718 1.532-5.688 3.687-1.994-7.44-2.192-14.786-2.187-22.437l-.002-2.944c.03-4.051.061-7.705 1.189-11.619 2.208-.572 4.373-1.062 6.625-1.437 2.546-.384 2.546-.384 4.375-2.563 4 0 4 0 6 1l2-3c1.813-1 1.813-1 4-2l2.5-1.75c2.5-1.25 2.5-1.25 4.75-.562C807 339 807 339 808 341l1-4 6 2 1-4h4a791 791 0 0 0 3-5c2.313-1.125 2.313-1.125 5-2l3.125-1.687C834 325 834 325 837 326"/><path fill="#3F70DC" d="m1139 115 2 2-3 2v3l-3 2-1-6c-3.113.669-3.113.669-4.187 3.063L1129 123h-3l2 1v2l-4 1 3 1h-4v2l-1.875.375c-2.316.497-2.316.497-4.125 2.625h-2c-3.088.647-3.088.647-4 2.875l-1 2.125c-1.625 1.75-1.625 1.75-3 3l-1-3v5c-3 1-3 1-6 1l-1 1h3l-1 2-2 .438-2 .562-1 3-2.375.375c-2.766.416-2.766.416-4.625 2.625l-2.437.875c-2.925 1.284-3.838 2.496-5.563 5.125l-2 2-2 3-2-3-2 1 3 1c-1.397 2.794-3.132 2.996-6 4h-1c-2.236 2.594-3 3.483-3 7-1.822 1.925-3.892 3.375-6 5-.646-18.677 9.234-37.134 21-51 15.86-14.912 37.136-21.197 58-14"/><path fill="#238ADB" d="M89 361c2.655 3.251 4.343 6.646 6.125 10.438 3.564 7.394 8.034 13.954 12.875 20.562l-3 1-4-6q-3.174.358-6.348.719-2.664.282-5.336.5l-2.629.219-2.425.183c-2.41.404-4.145 1.183-6.262 2.379v-2l-3 .875c-10.988 3.105-10.988 3.105-16.375 3.438C49.03 394.12 38.837 397.208 30 401c-4.36-7.128-8.192-14.118-11-22l1.938.5c2.583.693 2.583.693 4.937-.5C28 378 28 378 31 378a88 88 0 0 0 5-3l1 3 2-3q1.992-.53 4-1c2.207-1.488 2.207-1.488 4-3 0 3 0 3-2 6l2.188-2.437c2.924-2.665 4.04-3.067 7.812-3.563l3-2 1 3h2l1.875-1.875c1.997-1.997 3.56-3.026 6.125-4.125l3 2c4.253-.271 6.81-1.178 10-4l5 4z"/><path fill="#4369DF" d="m1001 203 2 1c3.028 9.386.416 20.52-1 30-3.106 0-4.353-.54-7-2v-3l-2-1 1 4-4 1 1 2h3c1.34.306 2.675.635 4 1-1.75 1.563-1.75 1.563-4 3-1.937-.187-1.937-.187-4-1l-2.75-1.062L985 236l-1 2-3-2v7l-3 1 1-4c-4.487.339-4.487.339-7.875 3.063L970 245l-2-1-2 1-2-1v5h-2l-1-1-3 1-3-1-.312 1.75c-.786 2.57-1.993 4.187-3.688 6.25l-2-1v-3c-3.122 1.309-3.122 1.309-5 4l-2.375-.625L939 255l-2 2-1-3-4 8h-3c.416-4.273.862-8.543 1.313-12.812l.357-3.682.38-3.526.334-3.253c.662-2.929 1.164-4.031 3.616-5.727h3l1-2 2 2 3-1 1 2h-2l2 2 2.438-2.437L951 230v-3h5l2-4 2 3h3l1-3c3.702-.947 5.391-1.304 8.875.438.701.515 1.403 1.03 2.125 1.562v-2h2v-2h2c1.118-2.118 1.118-2.118 2-5 2-2 2-2 5-4v-4l4 1 2-4 4 2 1-3 3 1zm-6 23v2h2v-2z"/><path fill="#3A6BE3" d="M856 261c2 2 2 2 2.067 3.81-.76 5.896-2.044 11.526-3.63 17.252l-.708 2.624c-.57 2.106-1.149 4.21-1.729 6.314l-6-6-4 3 1-4-2-1v3h-2v-4h-2c-.681 1.892-.681 1.892-1 4l2 2h-5l-1-2-1-1-5 5v-3l-2-1-1 7-1.25-1.562L820 290c-3.142.413-4.92 1.558-7.312 3.563-3.7 2.753-6.067 2.514-10.688 2.437-2.847.878-5.585 1.922-8.352 3.027-2.547.936-4.977 1.515-7.648 1.973l1 6-5 1c.65-7.171 1.981-14.042 3.563-21.062l.708-3.202q.859-3.87 1.729-7.736h3l1 3 1-2h2l2 2 2-2v-2l2.375-.375c2.766-.416 2.766-.416 4.625-2.625 3.464-1.003 5.575-.884 9 0 1.975-.348 1.975-.348 4-1 3.185-.717 5.687-1 9-1l2-3c2.625-1.187 2.625-1.187 5-2v2h6v-3l2.375-.437c2.59-.441 2.59-.441 4.625-1.563v2c4.479-.447 4.479-.447 8-3m-35 10-1 2h4v-2z"/><path fill="#4D60DE" d="M1156.957 132.508c2.973 2.171 3.688 4.979 4.73 8.367.214.671.428 1.342.647 2.034 2.751 9.101 3.072 17.719 1.666 27.091l-2-2-2 2c-1.98 1.692-3.992 3.341-6 5l-2-2-1 5-.687-1.937c-1.166-2.335-1.166-2.335-3.938-2.813L1144 173l.5 2.25c.5 2.75.5 2.75.5 6.75l-8-1 1 6-7 1-2 6-2-1 .438-2.324c1.442-8.627 1.715-16.834 1.4-25.565-.152-6.573-.152-6.573 1.615-9.6L1132 154l.813-2.062c1.733-2.829 4.252-3.5 7.187-4.938a249 249 0 0 0 3-4c2.063-.812 2.063-.812 4-1l2 1v-4c2.5-1.75 2.5-1.75 5-3l-1-3c2-1 2-1 3.957-.492"/><path fill="#366EE3" d="M461 392c2.625.375 2.625.375 5 1-.181 5.685-1.546 8.25-5.557 12.238l-1.88 1.762-1.93 1.858c-4.875 4.614-9.858 8.694-15.633 12.142l-2.977 1.828c-11.272 6.528-22.733 9.124-35.523 10.547l-2.535.294c-5.227.493-9.01.06-13.965-1.669a171 171 0 0 0-5-1c2.208-2.208 3.497-2.611 6.438-3.5 3.024-.917 4.877-1.71 7.562-3.5h3l1-3 3 1 1-2a134 134 0 0 1 6-3l2.063-1.187c2.405-1.01 4.352-.881 6.937-.813l2-1v2c2.24-1.004 3.878-1.878 5.625-3.625L427 411h2l2-3c2 1 2 1 3 2l1-7c2.867.573 3.861.861 6 3l-2 1 5-1-3-3 8-4 2-2v2l7-1 .375-1.875C459 394 459 394 461 392m-46 24-1 3 3-1v-2z"/><path fill="#0BADD2" d="M72 240h3v2h2c-.06 2.126-.149 4.25-.25 6.375l-.14 3.586C76 255 76 255 73.952 256.414L72 257l-2-2-1.898.656-2.477.844-2.46.844C61 258 61 258 59 258l-1 2c-5.45 1.275-5.45 1.275-8 0v2l-2.3.367-3.013.508-2.988.492c-2.9.514-2.9.514-5.699 2.633h-4l-1 2-3-1a221 221 0 0 0-7 2h-3c-1.656.728-3.31 1.46-4.957 2.207-2.967 1.152-6 1.7-9.125 2.266C1.78 273.89 1.78 273.89 0 276a215 215 0 0 1-.25-5.312l-.14-2.989C0 265 0 265 1.952 263.332L4 262l1-3 3.25.563c3.154.367 4.848.482 7.75-.563l-1-5 3 2c8.066.268 8.066.268 14.688-3.625L35 250c3.125.375 3.125.375 6 1 1.646-1.396 1.646-1.396 3-3h4l1-2 2 1 1-2c2.563-.625 2.563-.625 5-1l2 3 2.75-1c3.25-1 3.25-1 7.25-1l1-3h2zm1 2v4l2-4zm-18 5 1 2Z"/><path fill="#4F4CEB" d="m924 319 2 4v-2l6-1c-.327 8.048-2.958 13.93-6.562 21.063l-1.577 3.2A924 924 0 0 1 920 352l-1-2h-2v2h-3l-2 1-2-2 3-3-4-2 1 4h-4l-1 4h-4l-1 4-1-2c-2.062 1.812-2.062 1.812-4 4v3l-4-2 1-2h-2l-1 2-2 1 2 2c-2.647 1.46-3.894 2-7 2v2h-2v2c-2-1-2-1-3-3h2l.758-1.746c1.411-2.561 3.059-4.24 5.117-6.317 5.238-5.637 9.078-11.977 12.962-18.6l1.464-2.435 1.286-2.203c1.697-2.04 2.828-2.337 5.413-2.699v2h1l1-2 6 1 1-3 3-1-.375-2.687c.415-3.669.684-3.983 3.375-6.188z"/><path fill="#653FE3" d="m1346 223 2 1-1 5-3-1q.427 2.159.875 4.313l.492 2.425c.578 2.515.578 2.515 2.633 5.262l-3 1c-1.023 2.097-1.023 2.097-1.687 4.563l-.762 2.503L1342 250h-1l-1-23 5-2zm-3 12c-1.416 1.184-1.416 1.184-1.062 4.563L1342 243l3-4z"/><path fill="#3473DD" d="M548 337h1a790 790 0 0 1-.375 6.875c-.07 1.276-.14 2.552-.21 3.867C548 351 548 351 546 353c-1.357-2.714-1.064-5-1-8v-1c0-3.517.764-4.406 3-7"/><path fill="#3969E2" d="M849 292h2c-.63 5.781-1.652 11.344-3 17-2.151-3.9-2-6.524-2-11q1.47-1.53 3-3z"/><path fill="#6839E3" d="M1333 299c2.444 2.444 2.92 3.554 3 7-2.437 2.813-2.437 2.813-5 5-1.41-2.818-.509-4.173.438-7.125l.87-2.758z"/><path fill="#12A2D2" d="m481 167 10 5-4 2c-3.006-1.002-4.062-1.6-6-4z"/><path fill="#4F4BE9" d="m875 369 2 4c-2.174 2.5-3.73 3.436-7 4l-1-3z"/><path fill="#6142E3" d="m1179 306 4 1c-.75 6.75-.75 6.75-3 9l-2-1z"/><path fill="#386DDE" d="M129 467h13l1 3a583 583 0 0 1-5.875-.375c-1.09-.07-2.181-.14-3.305-.21C131 469 131 469 129 467"/><path fill="#3F5FE0" d="m839 349 2 1v13h-1l-1-8-2 1-1-5z"/><path fill="#5B3DE8" d="m1044 396 6 2-5 5-1-2 1-2-3-1z"/><path fill="#5452DE" d="m1345 237 3 3-3 1c-1.023 2.097-1.023 2.097-1.687 4.563l-.762 2.503L1342 250h-1a176 176 0 0 1-.25-4.812l-.14-2.708c.39-2.48.39-2.48 2.406-4.304z"/><path fill="#3E62E8" d="M564 421h7l-1 3c-3.062 1.188-3.062 1.188-6 2l-1-3z"/><path fill="#3B6ADE" d="m929 263 1 2h2c-1.59 4.035-3.282 8.018-5 12-1.21-3.632-.628-5.065.438-8.687l.87-3.012z"/><path fill="#366EDC" d="m98 457 7 1 1 3-9-1z"/><path fill="#5345EC" d="M643 425c2.38.176 3.702.697 5.379 2.402 1.242 1.504 2.435 3.05 3.621 4.598h-6v-3c-1.44-2.17-1.44-2.17-3-4"/><path fill="#564BE2" d="M1008 335h1l2 14c-3-2-3-2-3.75-4.75-.254-3.302.059-6.023.75-9.25"/><path fill="#366EE0" d="m469 387 3 1c-.564 3.27-1.5 4.826-4 7-.93-2.606-1.15-3.642-.062-6.25z"/><path fill="#425BE4" d="m777 367 3 2-2 1c-1.134 2.017-1.134 2.017-2 4h-2v-6z"/><path fill="#5C45E7" d="M999 306c2 3 2 3 1.625 5.188L1000 313l-2-1-1 2-.375-1.937L996 310l-2-1h2l1-2 2 1z"/><path fill="#415CE6" d="M685 383c.25 7.625.25 7.625-2 11l.125-2.875c.225-3.227.225-3.227-2.125-5.125 2.875-3 2.875-3 4-3"/><path fill="#2782D9" d="M109 394q1.758 1.428 3.5 2.875l1.969 1.617L116 400v2l-3-1v-2l-4-2z"/><path fill="#5B47E2" d="M1182 292h1c.081 1.437.14 2.874.188 4.313l.105 2.425c-.355 2.74-1.187 3.554-3.293 5.262 1-8.571 1-8.571 2-12"/><path fill="#4258E8" d="m633 420 1 4-3 2-3-3c2.75-3 2.75-3 5-3"/><path fill="#5B49E0" d="m1267 249 3 1-3 6-1-2-2-1z"/></svg>