<?xml version="1.0" standalone="no"?>
<!DOCTYPE svg PUBLIC "-//W3C//DTD SVG 20010904//EN"
 "http://www.w3.org/TR/2001/REC-SVG-20010904/DTD/svg10.dtd">
<svg version="1.0" xmlns="http://www.w3.org/2000/svg"
 width="1024.000000pt" height="525.000000pt" viewBox="0 0 1024.000000 525.000000"
 preserveAspectRatio="xMidYMid meet">

<g transform="translate(0.000000,525.000000) scale(0.100000,-0.100000)"
fill="#000000" stroke="none">
<path d="M0 2625 l0 -2625 5120 0 5120 0 0 2625 0 2625 -5120 0 -5120 0 0
-2625z m6320 2326 c13 -25 4 -48 -21 -56 -38 -12 -65 35 -37 63 18 18 46 14
58 -7z m-930 -73 l0 -81 25 23 c32 30 109 39 151 17 109 -57 122 -217 22 -288
-45 -32 -125 -33 -167 -1 -30 22 -31 22 -31 2 0 -16 -7 -20 -30 -20 l-30 0 0
215 0 215 30 0 30 0 0 -82z m1660 -133 l0 -215 -25 0 -25 0 0 215 0 215 25 0
25 0 0 -215z m-3882 166 c39 -20 82 -67 82 -90 0 -22 -58 -12 -77 14 -26 37
-94 58 -142 45 -111 -30 -144 -187 -57 -267 30 -28 43 -33 85 -33 59 0 95 14
116 47 11 15 25 23 45 23 17 0 30 -2 30 -5 0 -23 -37 -68 -73 -88 -146 -84
-310 7 -310 173 0 160 157 254 301 181z m1317 -131 c21 -83 41 -152 45 -155 4
-2 26 65 50 150 l43 155 33 0 c31 0 34 -3 45 -42 6 -24 26 -97 44 -163 l33
-120 10 40 c6 22 25 95 43 163 31 120 32 122 60 122 16 0 29 -4 29 -8 0 -5
-25 -94 -55 -197 -30 -104 -55 -191 -55 -192 0 -2 -15 -3 -33 -3 l-33 0 -45
156 -45 155 -46 -153 -45 -153 -34 0 -34 0 -52 185 c-29 102 -52 191 -53 198
0 7 12 12 29 12 l29 0 37 -150z m1476 -14 c32 -87 60 -161 62 -163 2 -2 31 71
63 162 l59 165 31 0 32 0 -76 -201 -75 -200 -35 3 c-38 3 -24 -26 -153 321
l-29 78 31 -3 c31 -3 32 -6 90 -162z m509 124 l0 -40 40 0 c36 0 40 -2 40 -25
0 -23 -4 -25 -40 -25 l-41 0 3 -107 3 -108 38 -3 c32 -3 37 -7 37 -28 0 -22
-4 -24 -44 -24 -28 0 -52 7 -67 19 -22 18 -24 27 -27 135 -3 106 -5 116 -23
116 -14 0 -19 7 -19 25 0 18 5 25 20 25 16 0 20 7 20 33 0 40 6 47 37 47 20 0
23 -5 23 -40z m-2903 -68 c64 -45 84 -158 41 -222 -39 -57 -72 -75 -138 -75
-93 0 -150 54 -158 149 -5 67 25 128 78 157 47 26 134 22 177 -9z m183 7 l0
-20 26 20 c15 12 37 21 50 21 20 0 24 -5 24 -30 0 -26 -4 -30 -28 -30 -53 0
-67 -29 -70 -151 l-4 -109 -29 0 -29 0 0 153 c0 85 3 157 7 160 3 4 17 7 30 7
17 0 23 -6 23 -21z m378 1 c46 -28 73 -76 70 -125 l-3 -40 -122 -3 c-68 -1
-123 -4 -123 -7 0 -22 25 -57 51 -70 41 -21 92 -12 118 20 22 29 71 35 71 9 0
-25 -53 -71 -97 -84 -55 -17 -106 -6 -148 31 -41 37 -59 86 -53 149 6 56 38
107 82 126 46 20 116 17 154 -6z m1072 -2 c43 -30 71 -83 68 -128 l-3 -35
-122 -3 c-136 -3 -143 -7 -99 -59 20 -23 32 -28 71 -28 39 0 51 5 69 28 14 17
31 27 49 27 32 0 32 -1 11 -41 -17 -34 -82 -68 -128 -69 -16 0 -48 9 -71 20
-109 53 -117 227 -13 290 47 28 125 27 168 -2z m1118 -140 l3 -158 -31 0 -30
0 0 161 0 160 28 -3 27 -3 3 -157z m499 143 c31 -19 31 -19 36 0 3 13 14 19
31 19 l26 0 0 -160 0 -160 -30 0 c-23 0 -30 4 -30 20 0 20 -1 20 -31 -2 -41
-31 -116 -32 -155 -2 -49 36 -67 70 -71 131 -5 69 16 116 67 151 42 28 112 30
157 3z m518 -12 c12 -13 26 -34 30 -46 5 -20 3 -23 -20 -23 -17 0 -35 9 -47
25 -31 40 -108 33 -108 -10 0 -30 13 -39 82 -59 94 -27 124 -87 71 -146 -36
-40 -87 -49 -148 -25 -45 17 -83 64 -70 85 12 20 52 10 63 -14 22 -50 122 -43
122 8 0 24 0 24 -103 61 -73 26 -98 81 -61 133 23 33 51 42 112 39 40 -3 59
-10 77 -28z m-4024 -607 c60 -31 113 -93 129 -150 14 -51 14 -3113 0 -3164
-16 -57 -69 -119 -129 -150 l-53 -28 -1237 0 c-1175 0 -1238 1 -1276 19 -52
23 -103 74 -126 126 -18 38 -19 111 -19 1615 0 1504 1 1577 19 1615 23 51 74
102 126 126 38 18 93 19 1276 19 l1237 0 53 -28z m3110 0 c60 -31 113 -93 129
-150 13 -47 14 -3099 0 -3156 -13 -56 -58 -116 -115 -151 l-48 -30 -1251 -3
c-1391 -3 -1297 -7 -1371 65 -21 20 -46 55 -56 77 -18 39 -19 104 -19 1616 0
1504 1 1577 19 1615 22 49 71 98 125 125 40 20 57 20 1287 20 l1247 0 53 -28z
m3146 7 c55 -27 101 -72 124 -124 18 -38 19 -111 19 -1615 0 -1504 -1 -1577
-19 -1615 -23 -52 -74 -103 -126 -126 -38 -18 -102 -19 -1311 -19 l-1272 0
-53 28 c-60 31 -113 93 -129 150 -14 51 -14 3113 0 3164 16 57 69 119 129 150
l53 28 1271 0 c1271 0 1271 0 1314 -21z"/>
<path d="M5443 4788 c-53 -25 -69 -132 -28 -178 53 -59 149 -39 173 35 33 100
-54 187 -145 143z"/>
<path d="M3404 4777 c-22 -19 -28 -34 -32 -79 -4 -50 -2 -58 26 -89 26 -29 36
-34 73 -33 35 1 48 8 71 33 23 26 28 41 28 82 0 43 -5 55 -29 80 -38 38 -97
40 -137 6z"/>
<path d="M3979 4771 c-52 -52 -42 -61 66 -61 89 0 95 1 95 20 0 34 -47 70 -92
70 -30 0 -46 -7 -69 -29z"/>
<path d="M5046 4774 c-14 -15 -26 -35 -26 -45 0 -17 9 -19 95 -19 108 0 118 9
66 61 -40 39 -97 41 -135 3z"/>
<path d="M6701 4786 c-33 -18 -50 -53 -51 -103 0 -77 68 -127 140 -102 38 14
60 55 60 114 0 83 -77 131 -149 91z"/>
<path d="M1530 3795 l0 -205 116 0 115 0 -3 38 -3 37 -62 3 -63 3 0 164 0 165
-50 0 -50 0 0 -205z"/>
<path d="M1905 3981 c-73 -34 -115 -102 -115 -186 0 -118 86 -205 202 -205 67
0 134 32 165 79 34 51 30 61 -23 61 -35 0 -54 -6 -76 -25 -32 -27 -84 -33
-120 -14 -23 12 -48 67 -48 105 0 94 105 150 166 89 20 -20 35 -25 74 -25 58
0 62 10 28 60 -50 73 -166 101 -253 61z"/>
<path d="M2250 3795 l0 -205 50 0 50 0 0 75 0 75 59 0 c103 0 165 70 141 159
-20 76 -73 101 -212 101 l-88 0 0 -205z m181 115 c13 -7 19 -21 19 -45 0 -39
-3 -42 -58 -51 l-42 -7 0 57 c0 56 0 56 31 56 17 0 39 -5 50 -10z"/>
<path d="M900 3225 l0 -205 1160 0 1160 0 0 205 0 205 -1160 0 -1160 0 0 -205z
m1570 80 c0 -8 -6 -15 -12 -15 -10 0 -9 -3 1 -9 7 -5 22 -6 32 -4 16 5 19 0
19 -31 0 -25 4 -36 15 -36 10 0 15 11 15 35 0 28 4 35 20 35 17 0 20 -7 20
-51 l0 -50 -47 3 c-44 3 -49 5 -58 36 -12 42 -25 41 -25 -3 0 -24 -5 -35 -15
-35 -10 0 -15 10 -15 33 0 38 -6 48 -26 40 -16 -6 -19 -43 -4 -43 6 0 10 -7
10 -16 0 -10 -7 -14 -22 -12 -18 2 -24 12 -30 43 -8 48 -2 75 18 75 8 0 14 -4
14 -9 0 -18 31 -21 37 -3 12 32 53 45 53 17z m469 -55 c1 -58 -1 -70 -15 -70
-13 0 -15 10 -12 55 1 30 -1 56 -6 58 -13 4 2 27 18 27 10 0 14 -20 15 -70z
m-1159 50 c5 0 14 -9 20 -20 10 -19 8 -20 -32 -18 -40 3 -43 1 -43 -22 0 -23
3 -25 43 -22 47 3 49 1 26 -22 -20 -21 -68 -20 -89 0 -25 25 -16 85 15 101 14
7 31 11 38 8 8 -3 18 -5 22 -5z m850 -55 c0 -58 -2 -65 -20 -65 -18 0 -20 7
-20 65 0 58 2 65 20 65 18 0 20 -7 20 -65z m-1610 10 c0 -38 3 -45 20 -45 11
0 20 -7 20 -15 0 -10 -11 -15 -35 -15 l-35 0 0 60 c0 47 3 60 15 60 11 0 15
-12 15 -45z m606 31 c16 -17 19 -36 4 -36 -5 0 -10 -9 -10 -20 0 -11 5 -20 10
-20 6 0 10 -7 10 -16 0 -10 -7 -14 -22 -12 -18 2 -24 12 -30 43 -11 66 5 93
38 61z m470 0 c16 -17 19 -36 4 -36 -5 0 -10 -9 -10 -20 0 -11 5 -20 10 -20 6
0 10 -7 10 -15 0 -22 -47 -19 -53 3 -20 72 -17 102 10 102 8 0 21 -6 29 -14z
m674 -1 c17 -20 3 -54 -26 -61 -15 -4 -24 -13 -24 -25 0 -12 -7 -19 -20 -19
-18 0 -20 7 -20 60 l0 60 39 0 c21 0 44 -6 51 -15z m346 1 c16 -17 19 -36 4
-36 -5 0 -10 -9 -10 -20 0 -11 5 -20 10 -20 6 0 10 -7 10 -16 0 -10 -7 -14
-22 -12 -18 2 -24 12 -30 43 -11 66 5 93 38 61z m-1946 -57 l0 -49 -45 0 c-40
0 -47 3 -56 26 -15 42 10 73 61 72 l40 0 0 -49z m80 31 c0 -10 -7 -20 -15 -24
-8 -3 -15 -17 -15 -31 0 -16 -6 -25 -15 -25 -11 0 -15 12 -15 49 0 49 1 50 30
49 22 -1 30 -6 30 -18z m110 -44 c0 -35 -5 -67 -12 -74 -24 -24 -88 -9 -88 21
0 5 13 7 30 4 16 -4 32 -2 35 3 4 6 -7 10 -25 10 -24 0 -33 6 -41 26 -15 42
10 73 61 72 l40 0 0 -62z m98 52 c17 -17 15 -63 -2 -77 -46 -38 -111 25 -71
69 20 22 55 26 73 8z m103 -5 c11 -13 11 -17 1 -21 -10 -3 -10 -7 -1 -18 6 -7
9 -21 5 -29 -7 -20 -60 -19 -77 2 -13 15 -11 16 15 11 l28 -6 -28 23 c-25 20
-27 25 -15 39 17 21 55 21 72 -1z m343 1 c19 -18 21 -55 4 -72 -21 -21 -66
-14 -84 13 -15 23 -15 27 0 50 19 29 56 33 80 9z m120 8 c3 -5 8 -28 12 -50 6
-38 5 -42 -15 -42 -17 0 -21 6 -21 35 0 24 -5 35 -15 35 -10 0 -15 -11 -15
-35 0 -28 -4 -35 -20 -35 -17 0 -20 7 -20 50 l0 50 44 0 c25 0 47 -4 50 -8z
m174 -4 c17 -17 15 -63 -2 -77 -46 -38 -111 25 -71 69 20 22 55 26 73 8z m122
-8 c5 -10 10 -32 10 -49 0 -24 -4 -31 -20 -31 -16 0 -20 7 -20 35 0 24 -5 35
-15 35 -10 0 -15 -11 -15 -35 0 -24 -5 -35 -15 -35 -11 0 -15 12 -15 49 l0 49
40 0 c29 1 43 -4 50 -18z m570 -31 l0 -49 -45 0 c-34 0 -47 5 -55 19 -25 47 0
80 60 79 l40 0 0 -49z m160 31 c5 -10 10 -32 10 -49 0 -24 -4 -31 -20 -31 -16
0 -20 7 -20 35 0 24 -5 35 -15 35 -10 0 -15 -11 -15 -35 0 -24 -5 -35 -15 -35
-11 0 -15 12 -15 49 l0 49 40 0 c29 1 43 -4 50 -18z"/>
<path d="M2720 3260 c0 -5 5 -10 10 -10 6 0 10 5 10 10 0 6 -4 10 -10 10 -5 0
-10 -4 -10 -10z"/>
<path d="M1107 3244 c-14 -14 -7 -35 11 -32 9 2 17 10 17 17 0 16 -18 25 -28
15z"/>
<path d="M1297 3244 c-14 -14 -7 -35 11 -32 9 2 17 10 17 17 0 16 -18 25 -28
15z"/>
<path d="M1418 3243 c7 -3 16 -2 19 1 4 3 -2 6 -13 5 -11 0 -14 -3 -6 -6z"/>
<path d="M1418 3213 c7 -3 16 -2 19 1 4 3 -2 6 -13 5 -11 0 -14 -3 -6 -6z"/>
<path d="M1857 3243 c-13 -12 -7 -33 8 -33 8 0 15 9 15 20 0 20 -11 26 -23 13z"/>
<path d="M2158 3243 c7 -3 16 -2 19 1 4 3 -2 6 -13 5 -11 0 -14 -3 -6 -6z"/>
<path d="M2158 3213 c7 -3 16 -2 19 1 4 3 -2 6 -13 5 -11 0 -14 -3 -6 -6z"/>
<path d="M2820 3230 c0 -11 7 -20 15 -20 8 0 15 9 15 20 0 11 -7 20 -15 20 -8
0 -15 -9 -15 -20z"/>
<path d="M1758 2829 c-24 -13 -23 -56 1 -69 12 -6 115 -10 265 -10 233 0 247
1 266 20 26 26 25 35 -2 54 -19 14 -62 16 -268 16 -148 0 -252 -5 -262 -11z"/>
<path d="M1758 2059 c-28 -16 -23 -58 8 -69 14 -6 133 -10 265 -10 227 0 240
1 259 20 22 22 15 52 -16 64 -27 10 -498 6 -516 -5z"/>
<path d="M2602 1920 c0 -14 2 -19 5 -12 2 6 2 18 0 25 -3 6 -5 1 -5 -13z"/>
<path d="M2896 1909 c-9 -30 -13 -69 -6 -69 8 0 22 71 15 78 -3 3 -7 -1 -9 -9z"/>
<path d="M2718 1883 c5 -21 7 -23 10 -9 2 10 0 22 -6 28 -6 6 -7 0 -4 -19z"/>
<path d="M2798 1875 c-2 -19 -1 -35 3 -35 4 0 9 16 11 35 2 19 1 35 -3 35 -4
0 -9 -16 -11 -35z"/>
<path d="M2987 1903 c-4 -3 -7 -16 -6 -27 0 -19 1 -19 10 3 10 24 8 36 -4 24z"/>
<path d="M3107 1890 c3 -11 7 -20 8 -20 1 0 5 9 8 20 3 12 0 20 -8 20 -8 0
-11 -8 -8 -20z"/>
<path d="M2541 1884 c0 -11 3 -14 6 -6 3 7 2 16 -1 19 -3 4 -6 -2 -5 -13z"/>
<path d="M2662 1865 c0 -16 2 -22 5 -12 2 9 2 23 0 30 -3 6 -5 -1 -5 -18z"/>
<path d="M2590 1847 c0 -10 8 -17 18 -17 9 0 13 4 7 8 -5 4 -13 11 -17 16 -5
5 -8 2 -8 -7z"/>
<path d="M3102 1826 c7 -8 15 -12 17 -11 5 6 -10 25 -20 25 -5 0 -4 -6 3 -14z"/>
<path d="M2370 1605 c0 -3 11 -28 25 -55 31 -61 31 -69 0 -130 l-25 -50 333 0
334 0 26 61 26 61 -29 59 -30 59 -330 0 c-182 0 -330 -2 -330 -5z"/>
<path d="M1960 1528 c0 -12 3 -18 7 -15 3 4 12 2 20 -4 10 -9 13 -6 13 17 0
22 -3 26 -10 14 -6 -10 -10 -11 -10 -2 0 6 -4 12 -10 12 -5 0 -10 -10 -10 -22z"/>
<path d="M2010 1525 c0 -14 5 -25 10 -25 6 0 10 11 10 25 0 14 -4 25 -10 25
-5 0 -10 -11 -10 -25z"/>
<path d="M2040 1531 c0 -30 17 -34 22 -6 4 17 1 25 -8 25 -8 0 -14 -9 -14 -19z"/>
<path d="M2080 1525 c0 -27 6 -30 29 -16 17 11 7 41 -14 41 -9 0 -15 -9 -15
-25z"/>
<path d="M1176 1514 c-32 -32 -8 -89 35 -82 18 2 24 9 24 28 0 16 -6 26 -18
28 -16 3 -18 0 -12 -20 7 -22 6 -22 -11 -6 -14 14 -15 20 -4 33 7 9 19 14 27
11 7 -3 13 1 13 9 0 20 -34 19 -54 -1z"/>
<path d="M1266 1514 c-9 -8 -16 -24 -16 -34 0 -20 25 -50 41 -50 27 0 49 22
49 50 0 44 -44 64 -74 34z m44 -34 c0 -10 -5 -22 -10 -25 -13 -8 -24 20 -16
41 8 20 26 9 26 -16z"/>
<path d="M1368 1519 c-35 -20 -17 -89 23 -89 42 0 63 54 33 84 -18 18 -32 20
-56 5z m42 -39 c0 -25 -18 -36 -26 -16 -8 21 3 49 16 41 5 -3 10 -15 10 -25z"/>
<path d="M1454 1516 c-3 -8 -4 -29 -2 -48 2 -25 8 -34 24 -36 25 -4 54 22 54
48 0 39 -63 69 -76 36z m46 -37 c0 -10 -4 -19 -10 -19 -5 0 -10 12 -10 26 0
14 4 23 10 19 6 -3 10 -15 10 -26z"/>
<path d="M1812 1455 c0 -16 2 -22 5 -12 2 9 2 23 0 30 -3 6 -5 -1 -5 -18z"/>
<path d="M1830 1455 c0 -16 6 -21 29 -20 16 0 36 7 45 14 13 11 16 11 16 0 0
-20 78 -19 90 1 5 8 10 18 10 21 0 3 -43 5 -95 5 -89 0 -95 -1 -95 -21z m157
-7 c-3 -8 -6 -5 -6 6 -1 11 2 17 5 13 3 -3 4 -12 1 -19z"/>
<path d="M2032 1468 c-15 -15 -16 -38 -2 -38 6 0 10 8 10 18 1 16 1 16 11 0
15 -26 27 -22 21 7 -5 27 -21 32 -40 13z"/>
<path d="M2090 1457 c0 -18 6 -23 25 -23 19 0 25 5 25 23 0 25 -15 31 -23 11
-4 -10 -6 -10 -6 0 -2 22 -21 12 -21 -11z"/>
<path d="M2150 1455 c0 -14 5 -25 10 -25 6 0 10 11 10 25 0 14 -4 25 -10 25
-5 0 -10 -11 -10 -25z"/>
<path d="M2180 1459 c0 -27 40 -31 50 -6 9 21 9 21 10 -3 1 -23 2 -23 10 -5
14 32 12 34 -30 32 -30 -1 -40 -5 -40 -18z"/>
<path d="M4712 3979 c-110 -55 -145 -207 -71 -309 87 -120 298 -100 348 33
l11 27 -51 0 c-40 0 -58 -6 -81 -25 -42 -35 -96 -34 -130 3 -96 101 25 266
130 177 23 -19 41 -25 81 -25 57 0 59 7 13 69 -51 68 -166 91 -250 50z"/>
<path d="M5060 3795 l0 -205 115 0 115 0 0 40 0 40 -65 0 -65 0 0 165 0 165
-50 0 -50 0 0 -205z"/>
<path d="M5394 3986 c-44 -20 -64 -53 -64 -106 0 -59 26 -85 117 -120 73 -28
94 -49 74 -74 -19 -23 -68 -20 -83 4 -10 16 -24 20 -64 20 -50 0 -51 -1 -46
-25 7 -37 57 -83 98 -91 19 -3 58 -4 86 -2 43 5 57 11 85 42 26 28 33 44 33
75 0 55 -30 85 -114 119 -73 30 -93 48 -83 76 9 24 62 21 80 -5 12 -17 23 -20
65 -17 l50 3 -12 34 c-17 51 -55 75 -129 78 -38 2 -74 -2 -93 -11z"/>
<path d="M3970 3225 l0 -205 1155 0 1155 0 0 205 0 205 -1155 0 -1155 0 0
-205z m909 25 c1 -58 -1 -70 -15 -70 -13 0 -15 10 -12 55 1 30 -1 56 -6 58
-13 4 2 27 18 27 10 0 14 -20 15 -70z m1170 0 c1 -58 -1 -70 -15 -70 -13 0
-15 10 -12 55 1 30 -1 56 -6 58 -13 4 2 27 18 27 10 0 14 -20 15 -70z m68 50
c-3 -11 -1 -20 4 -20 5 0 9 5 9 10 0 15 29 12 46 -4 16 -17 19 -36 4 -36 -5 0
-10 -9 -10 -20 0 -11 5 -20 10 -20 6 0 10 -7 10 -15 0 -20 -46 -20 -54 1 -3 9
-6 24 -6 35 0 10 -7 19 -15 19 -10 0 -15 -11 -15 -35 0 -23 -5 -35 -14 -35
-20 0 -28 89 -10 118 19 28 48 30 41 2z m-1969 -6 c35 -24 27 -37 -19 -29 -40
7 -40 7 -37 -21 3 -27 6 -29 41 -26 38 3 46 -5 25 -26 -21 -21 -75 -15 -92 10
-29 41 -14 83 34 101 23 8 24 8 48 -9z m492 -49 c0 -51 -3 -65 -15 -65 -12 0
-15 14 -15 65 0 51 3 65 15 65 12 0 15 -14 15 -65z m1221 55 c21 -12 26 -40 6
-40 -7 0 -18 5 -25 12 -7 7 -12 8 -12 2 0 -6 11 -16 25 -22 31 -14 41 -37 25
-57 -15 -18 -61 -20 -78 -3 -21 21 -13 31 20 24 34 -7 32 0 -4 18 -32 16 -36
54 -6 65 30 13 26 13 49 1z m69 -9 c0 -14 5 -18 20 -14 31 8 50 -15 50 -58 0
-32 -3 -39 -20 -39 -16 0 -20 7 -20 36 0 45 -24 42 -28 -4 -2 -20 -9 -32 -18
-32 -11 0 -14 15 -14 65 0 51 3 65 15 65 8 0 15 -9 15 -19z m-1105 -8 c10 -13
10 -21 1 -35 -8 -14 -8 -23 2 -38 17 -28 15 -32 -15 -28 -24 3 -29 9 -35 43
-4 22 -4 48 -2 58 7 22 33 22 49 0z m355 -28 c0 -38 3 -45 20 -45 11 0 20 -7
20 -15 0 -10 -11 -15 -35 -15 l-35 0 0 60 c0 47 3 60 15 60 11 0 15 -12 15
-45z m555 28 c10 -13 10 -21 1 -35 -8 -14 -8 -23 2 -38 17 -28 15 -32 -15 -28
-24 3 -29 9 -35 43 -4 22 -4 48 -2 58 7 22 33 22 49 0z m-1515 -38 c0 -24 5
-35 15 -35 10 0 15 11 15 35 0 28 4 35 20 35 17 0 20 -7 20 -51 l0 -50 -47 3
-48 3 -3 48 c-2 37 0 47 12 47 12 0 16 -10 16 -35z m228 29 c19 -4 22 -11 22
-49 0 -54 -27 -65 -32 -13 -4 46 -28 49 -28 4 0 -29 -4 -36 -20 -36 -16 0 -20
7 -20 36 0 45 -24 42 -28 -4 -2 -20 -9 -32 -18 -32 -10 0 -14 13 -14 49 l0 50
58 -1 c31 0 67 -2 80 -4z m72 -29 c0 -24 5 -35 15 -35 10 0 15 11 15 35 0 28
4 35 20 35 17 0 20 -7 20 -51 l0 -50 -47 3 -48 3 -3 48 c-2 37 0 47 12 47 12
0 16 -10 16 -35z m240 -16 l0 -49 -45 0 c-34 0 -47 5 -55 19 -25 47 0 80 60
79 l40 0 0 -49z m171 24 l11 -28 10 28 c6 16 17 27 29 27 18 0 18 -1 1 -47
-13 -35 -24 -49 -40 -51 -22 -3 -33 13 -48 73 -9 36 23 33 37 -2z m158 13 c12
-15 11 -52 -2 -73 -10 -16 -59 -17 -75 -1 -17 17 -15 54 4 72 19 20 58 21 73
2z m241 -37 l0 -49 -45 0 c-40 0 -47 3 -56 26 -15 42 10 73 61 72 l40 0 0 -49z
m55 24 l8 -28 10 28 c7 16 18 27 29 27 10 0 18 -2 18 -3 0 -2 -13 -35 -28 -73
-18 -43 -35 -70 -46 -72 -14 -3 -16 2 -11 30 4 20 0 47 -9 70 -20 47 -20 48 3
48 12 0 22 -10 26 -27z m160 7 c15 -16 17 -26 9 -48 -8 -23 -15 -27 -49 -27
-34 0 -41 4 -49 27 -12 33 14 68 49 68 12 0 30 -9 40 -20z m55 -15 c0 -24 5
-35 15 -35 10 0 15 11 15 35 0 28 4 35 20 35 17 0 20 -7 20 -51 l0 -50 -47 3
-48 3 -3 48 c-2 37 0 47 12 47 12 0 16 -10 16 -35z"/>
<path d="M4690 3230 c0 -11 7 -20 15 -20 8 0 15 9 15 20 0 11 -7 20 -15 20 -8
0 -15 -9 -15 -20z"/>
<path d="M5048 3213 c7 -3 16 -2 19 1 4 3 -2 6 -13 5 -11 0 -14 -3 -6 -6z"/>
<path d="M5267 3244 c-14 -14 -7 -35 11 -32 9 2 17 10 17 17 0 16 -18 25 -28
15z"/>
<path d="M5490 3230 c0 -11 7 -20 15 -20 8 0 15 9 15 20 0 11 -7 20 -15 20 -8
0 -15 -9 -15 -20z"/>
<path d="M4742 2843 c-56 -7 -64 -32 -60 -190 l3 -138 -55 -6 c-42 -4 -47 -6
-18 -7 70 -4 73 -10 24 -57 -52 -50 -72 -85 -80 -140 -7 -44 -4 -39 32 48 8
21 32 52 51 69 l36 32 3 -33 c2 -23 -4 -42 -23 -67 l-26 -34 60 0 c56 0 60 -1
69 -29 6 -16 8 -38 5 -49 -6 -26 11 -36 36 -20 14 8 24 9 31 2 6 -6 3 -10 -10
-12 -66 -7 -61 -4 -41 -27 10 -11 21 -28 24 -38 6 -17 24 -18 282 -15 247 3
276 5 292 21 15 15 19 41 23 157 5 137 5 138 25 122 32 -27 65 -78 80 -124 11
-36 13 -38 14 -16 2 44 -34 112 -79 151 -23 19 -39 40 -35 46 3 6 27 12 53 13
l47 1 -55 6 -55 6 0 135 c0 143 -5 173 -33 186 -18 9 -563 15 -620 7z m108
-93 c-6 -12 -14 -19 -17 -17 -2 3 1 15 7 27 6 12 14 19 17 17 2 -3 -1 -15 -7
-27z m64 22 c-6 -4 -10 -15 -8 -24 1 -10 -2 -18 -7 -18 -5 0 -9 11 -9 25 0 17
5 25 18 25 10 0 13 -3 6 -8z m66 -7 c0 -8 -6 -15 -14 -15 -8 0 -17 -6 -19 -12
-3 -7 -6 -1 -6 15 -1 21 4 27 19 27 11 0 20 -7 20 -15z m187 -1 c8 -21 -19
-46 -40 -38 -17 6 -23 35 -10 47 12 13 44 7 50 -9z m78 -14 c0 -18 -6 -26 -23
-28 -13 -2 -25 3 -28 12 -10 26 4 48 28 44 17 -2 23 -10 23 -28z m-365 1 c0
-6 -4 -13 -10 -16 -5 -3 -10 1 -10 9 0 9 5 16 10 16 6 0 10 -4 10 -9z m-143
-97 c-3 -3 -12 -4 -19 -1 -8 3 -5 6 6 6 11 1 17 -2 13 -5z m359 -39 c76 -23
126 -77 140 -150 10 -48 10 -49 0 -105 -21 -120 -185 -184 -299 -117 -54 32
-84 71 -103 135 -13 40 -12 51 2 91 35 98 61 125 143 147 60 16 59 16 117 -1z
m-276 -105 c0 -11 -7 -23 -15 -27 -19 -7 -20 -5 -29 25 -6 19 -4 22 18 22 19
0 26 -5 26 -20z m480 -6 c0 -21 -4 -25 -22 -22 -15 2 -24 11 -26 26 -3 18 1
22 22 22 21 0 26 -5 26 -26z m-443 -338 c-4 -9 -12 -16 -19 -16 -10 0 -9 3 1
9 9 6 11 16 7 27 -6 15 -4 16 5 7 6 -6 9 -19 6 -27z"/>
<path d="M4962 2540 c-130 -79 -74 -280 78 -280 151 0 206 202 78 280 -43 26
-113 26 -156 0z m118 -55 c0 -5 -17 -48 -44 -107 -25 -59 -53 -68 -30 -10 24
58 58 122 66 122 5 0 8 -2 8 -5z m-118 -58 c-21 -22 -21 -23 -2 -35 21 -13 27
-32 11 -32 -6 0 -22 10 -37 23 l-27 23 33 27 c38 32 54 28 22 -6z m176 4 c29
-25 28 -32 -10 -58 -36 -25 -50 -22 -25 5 18 20 22 42 8 42 -5 0 -11 7 -15 15
-8 21 14 18 42 -4z"/>
<path d="M4688 2240 c-4 -29 -3 -30 32 -30 35 0 36 1 32 30 -4 25 -9 30 -32
30 -23 0 -28 -5 -32 -30z"/>
<path d="M4600 2199 c-9 -15 -8 -24 1 -35 17 -21 32 -17 46 11 9 22 8 27 -7
35 -25 14 -28 13 -40 -11z"/>
<path d="M4674 2155 c-20 -30 -11 -58 22 -74 22 -9 31 -9 50 4 26 17 33 62 12
83 -21 21 -66 14 -84 -13z m76 0 c22 -26 8 -50 -30 -50 -25 0 -36 5 -38 18 -5
23 15 47 38 47 10 0 23 -7 30 -15z"/>
<path d="M4606 2101 c-21 -23 -20 -37 3 -53 10 -8 21 -25 23 -38 3 -24 5 -25
88 -25 76 0 85 2 88 19 2 11 -4 26 -14 33 -10 7 -13 13 -8 13 6 0 15 -5 21
-11 8 -8 16 -4 29 16 17 26 17 28 -1 41 -25 19 -33 18 -40 -6 -7 -23 -53 -50
-84 -50 -12 0 -21 -8 -24 -22 -3 -15 -4 -13 -2 5 1 20 -2 26 -12 23 -8 -3 -12
-2 -9 3 3 5 -1 14 -9 21 -8 7 -15 18 -15 26 0 22 -16 25 -34 5z"/>
<path d="M5948 1910 c-3 -16 -1 -30 4 -30 4 0 8 14 8 30 0 17 -2 30 -4 30 -2
0 -6 -13 -8 -30z"/>
<path d="M6082 1915 c0 -16 2 -22 5 -12 2 9 2 23 0 30 -3 6 -5 -1 -5 -18z"/>
<path d="M5800 1904 c0 -8 5 -12 10 -9 6 3 10 10 10 16 0 5 -4 9 -10 9 -5 0
-10 -7 -10 -16z"/>
<path d="M6155 1911 c-6 -11 9 -23 19 -14 9 9 7 23 -3 23 -6 0 -12 -4 -16 -9z"/>
<path d="M5342 1885 c0 -16 2 -22 5 -12 2 9 2 23 0 30 -3 6 -5 -1 -5 -18z"/>
<path d="M5595 1901 c-3 -5 -1 -12 5 -16 5 -3 10 1 10 9 0 18 -6 21 -15 7z"/>
<path d="M5901 1894 c0 -11 3 -14 6 -6 3 7 2 16 -1 19 -3 4 -6 -2 -5 -13z"/>
<path d="M5498 1870 c-3 -16 -1 -30 4 -30 4 0 8 14 8 30 0 17 -2 30 -4 30 -2
0 -6 -13 -8 -30z"/>
<path d="M5989 1872 c-3 -20 -2 -29 4 -23 5 5 7 19 5 32 -3 20 -5 19 -9 -9z"/>
<path d="M6041 1884 c0 -11 3 -14 6 -6 3 7 2 16 -1 19 -3 4 -6 -2 -5 -13z"/>
<path d="M5632 1865 c0 -16 2 -22 5 -12 2 9 2 23 0 30 -3 6 -5 -1 -5 -18z"/>
<path d="M5743 1879 c9 -5 17 -18 18 -27 0 -11 2 -12 6 -4 6 15 -14 42 -31 42
-6 0 -3 -5 7 -11z"/>
<path d="M5400 1862 c6 -13 14 -21 18 -18 3 4 -2 14 -12 24 -18 16 -18 16 -6
-6z"/>
<path d="M6112 1860 c0 -14 2 -19 5 -12 2 6 2 18 0 25 -3 6 -5 1 -5 -13z"/>
<path d="M6152 1855 c0 -16 2 -22 5 -12 2 9 2 23 0 30 -3 6 -5 -1 -5 -18z"/>
<path d="M6211 1845 c0 -35 1 -37 10 -17 6 15 5 30 -1 40 -7 13 -9 8 -9 -23z"/>
<path d="M5586 1855 c-3 -8 -1 -15 4 -15 6 0 10 7 10 15 0 8 -2 15 -4 15 -2 0
-6 -7 -10 -15z"/>
<path d="M5791 1854 c0 -11 3 -14 6 -6 3 7 2 16 -1 19 -3 4 -6 -2 -5 -13z"/>
<path d="M5892 1850 c0 -14 2 -19 5 -12 2 6 2 18 0 25 -3 6 -5 1 -5 -13z"/>
<path d="M5265 1851 c-3 -5 -1 -12 4 -15 5 -3 11 1 15 9 6 16 -9 21 -19 6z"/>
<path d="M5481 1538 l31 -62 -26 -53 c-14 -29 -26 -55 -26 -58 0 -2 149 -6
330 -7 l330 -3 30 62 30 63 -30 60 -30 60 -335 0 -335 0 31 -62z"/>
<path d="M5040 1518 c0 -10 6 -19 13 -19 6 -1 24 -3 39 -4 22 -3 26 0 23 16
-2 10 0 19 6 19 5 0 9 -9 9 -20 0 -28 20 -25 21 3 l0 22 9 -22 c11 -26 23 -29
38 -10 23 27 -3 38 -81 36 -67 -3 -77 -5 -77 -21z"/>
<path d="M4260 1500 c-24 -24 -24 -29 -4 -58 16 -24 60 -30 67 -9 6 19 -4 47
-17 47 -21 0 -27 -12 -13 -28 10 -13 9 -14 -3 -10 -24 8 -18 43 8 46 26 4 29
17 6 26 -22 8 -22 8 -44 -14z"/>
<path d="M4358 1509 c-21 -12 -24 -59 -6 -77 18 -18 46 -15 65 8 17 19 17 19
30 0 27 -39 73 -18 73 32 0 34 -31 54 -60 38 -11 -6 -20 -15 -20 -21 0 -6 -12
-1 -26 10 -30 24 -32 24 -56 10z m40 -41 c-4 -27 -23 -34 -32 -13 -8 21 1 35
20 35 10 0 14 -8 12 -22z m100 0 c-2 -13 -10 -23 -18 -23 -8 0 -16 10 -18 23
-3 17 2 22 18 22 16 0 21 -5 18 -22z"/>
<path d="M4547 1513 c-4 -3 -7 -26 -7 -50 0 -39 2 -43 24 -43 14 0 32 10 40
22 20 29 20 34 -4 58 -20 20 -41 25 -53 13z m41 -45 c-5 -32 -28 -35 -28 -4 0
17 5 26 16 26 10 0 14 -7 12 -22z"/>
<path d="M4900 1444 c0 -19 5 -22 38 -21 20 0 43 5 50 10 9 7 16 7 20 1 9 -14
115 -13 124 0 5 7 8 7 8 -1 0 -7 5 -13 10 -13 6 0 10 11 10 25 0 25 -23 35
-35 15 -4 -6 -12 -7 -18 -3 -7 4 -56 8 -109 8 -94 1 -98 0 -98 -21z"/>
<path d="M5174 1461 c-2 -2 -4 -12 -4 -22 0 -15 8 -18 43 -17 37 0 43 3 45 23
1 21 -2 23 -39 22 -22 -1 -42 -4 -45 -6z"/>
<path d="M5270 1448 c0 -17 6 -24 20 -25 16 -1 20 4 19 25 0 15 -3 21 -6 14
-4 -10 -8 -10 -19 -1 -11 9 -14 7 -14 -13z"/>
<path d="M5320 1451 c0 -30 17 -34 22 -6 4 17 1 25 -8 25 -8 0 -14 -9 -14 -19z"/>
<path d="M7840 3795 l0 -205 50 0 50 0 0 80 0 79 58 3 57 3 3 38 3 37 -60 0
-61 0 0 45 0 45 80 0 80 0 0 40 0 40 -130 0 -130 0 0 -205z"/>
<path d="M8157 3993 c-4 -3 -7 -96 -7 -205 l0 -198 50 0 50 0 0 205 0 205 -43
0 c-24 0 -47 -3 -50 -7z"/>
<path d="M8327 3993 c-4 -3 -7 -96 -7 -206 l0 -199 113 4 c90 2 120 7 152 24
82 43 122 144 95 240 -18 62 -66 109 -132 129 -51 15 -209 21 -221 8z m223
-112 c81 -80 32 -201 -81 -201 l-49 0 0 115 0 115 51 0 c42 0 55 -5 79 -29z"/>
<path d="M7100 3225 l0 -205 1155 0 1155 0 0 205 0 205 -1155 0 -1155 0 0
-205z m569 25 c1 -58 -1 -70 -15 -70 -13 0 -15 10 -12 55 3 52 -3 68 -17 45
-3 -5 -16 -11 -28 -11 -17 -1 -18 -2 -4 -6 21 -5 23 -33 2 -33 -9 0 -15 -9
-15 -25 0 -18 -5 -25 -20 -25 -18 0 -20 7 -20 60 l0 60 44 0 c25 0 48 5 51 10
3 6 12 10 19 10 10 0 14 -20 15 -70z m1071 -5 c0 -51 -3 -65 -15 -65 -12 0
-15 14 -15 65 0 51 3 65 15 65 12 0 15 -14 15 -65z m-835 38 c10 -13 10 -21 1
-35 -8 -14 -8 -23 2 -38 17 -28 15 -32 -15 -28 -24 3 -29 9 -35 43 -4 22 -4
48 -2 58 7 22 33 22 49 0z m95 -43 c0 -53 -2 -60 -20 -60 -18 0 -20 7 -20 60
0 53 2 60 20 60 18 0 20 -7 20 -60z m415 43 c10 -13 10 -21 1 -35 -8 -14 -8
-23 2 -38 17 -28 15 -32 -15 -28 -24 3 -29 9 -35 43 -4 22 -4 48 -2 58 7 22
33 22 49 0z m161 -8 c15 -23 18 -24 34 -10 35 32 80 12 80 -35 0 -34 -17 -50
-52 -50 -17 0 -31 7 -39 21 l-11 21 -14 -21 c-12 -16 -26 -21 -60 -21 l-44 0
0 60 0 60 45 0 c37 0 47 -4 61 -25z m-826 -17 c0 -10 -7 -18 -15 -18 -10 0
-15 -10 -15 -30 0 -20 -5 -30 -15 -30 -11 0 -15 12 -15 49 0 49 1 50 30 49 22
-1 30 -6 30 -20z m77 14 c6 -4 10 -25 10 -47 -2 -39 -3 -40 -36 -40 -20 0 -36
6 -39 14 -3 10 2 13 22 9 33 -7 34 0 1 12 -26 10 -34 45 -12 53 18 8 41 8 54
-1z m283 -12 c5 -10 10 -32 10 -49 0 -24 -4 -31 -20 -31 -16 0 -20 7 -20 35 0
24 -5 35 -15 35 -10 0 -15 -11 -15 -35 0 -24 -5 -35 -15 -35 -11 0 -15 12 -15
49 l0 49 40 0 c29 1 43 -4 50 -18z m114 4 c30 -29 11 -84 -29 -84 -17 0 -25
-6 -27 -22 -2 -13 -11 -24 -20 -26 -16 -3 -18 6 -18 72 l0 76 39 0 c23 0 46
-7 55 -16z m56 -19 c0 -24 5 -35 15 -35 10 0 15 11 15 35 0 28 4 35 20 35 17
0 20 -7 20 -51 l0 -50 -47 3 -48 3 -3 48 c-2 37 0 47 12 47 12 0 16 -10 16
-35z m580 -16 l0 -49 -45 0 c-34 0 -47 5 -55 19 -25 47 0 80 60 79 l40 0 0
-49z m53 25 l14 -27 7 27 c4 18 13 26 27 26 13 0 19 -5 16 -12 -40 -100 -62
-138 -78 -138 -16 0 -17 3 -7 25 9 19 7 34 -6 68 -20 52 -20 57 -1 57 8 0 21
-12 28 -26z"/>
<path d="M8510 3240 c0 -25 4 -31 18 -28 11 2 17 12 17 28 0 16 -6 26 -17 28
-14 3 -18 -3 -18 -28z"/>
<path d="M8638 3243 c7 -3 16 -2 19 1 4 3 -2 6 -13 5 -11 0 -14 -3 -6 -6z"/>
<path d="M8638 3213 c7 -3 16 -2 19 1 4 3 -2 6 -13 5 -11 0 -14 -3 -6 -6z"/>
<path d="M8170 3230 c0 -11 7 -20 15 -20 8 0 15 9 15 20 0 11 -7 20 -15 20 -8
0 -15 -9 -15 -20z"/>
<path d="M8790 3230 c0 -11 7 -20 15 -20 8 0 15 9 15 20 0 11 -7 20 -15 20 -8
0 -15 -9 -15 -20z"/>
<path d="M8530 2824 c-8 -2 -69 -8 -135 -13 -325 -27 -481 -44 -492 -53 -10
-8 -13 -76 -13 -275 0 -238 2 -265 16 -259 9 3 30 6 47 7 29 1 30 2 8 8 -30 8
-30 10 -38 212 l-6 167 39 6 c29 5 379 36 401 36 2 0 3 -6 3 -13 0 -18 84 -59
111 -54 24 4 24 4 2 6 -14 0 -23 8 -24 19 -11 158 -11 157 77 165 74 7 79 9
71 32 -6 14 -31 18 -67 9z m-197 -61 c-7 -2 -19 -2 -25 0 -7 3 -2 5 12 5 14 0
19 -2 13 -5z m-145 -66 c-14 -27 -43 -17 -43 16 1 22 -4 27 -22 27 -20 0 -22
-3 -14 -19 7 -13 6 -24 -3 -37 -12 -15 -16 -16 -30 -5 -34 28 -5 67 54 73 43
4 74 -26 58 -55z m65 56 c-13 -2 -33 -2 -45 0 -13 2 -3 4 22 4 25 0 35 -2 23
-4z m-228 -43 c10 -16 -16 -43 -28 -31 -11 11 -2 41 12 41 5 0 13 -5 16 -10z"/>
<path d="M8240 2560 c-7 -27 -17 -50 -23 -50 -7 0 -4 -5 6 -11 34 -20 47 -4
47 56 0 30 -4 55 -9 55 -5 0 -14 -22 -21 -50z"/>
<path d="M8328 2588 c27 -29 29 -74 5 -82 -10 -3 -1 -3 21 -1 21 2 41 6 43 9
11 10 -30 67 -60 82 l-32 17 23 -25z"/>
<path d="M8152 2557 c-23 -24 -29 -47 -13 -47 10 0 44 61 38 67 -2 1 -13 -7
-25 -20z"/>
<path d="M8421 2553 c7 -12 15 -20 18 -17 3 2 -3 12 -13 22 -17 16 -18 16 -5
-5z"/>
<path d="M8100 2470 c0 -12 -5 -31 -11 -42 -13 -24 1 -38 39 -38 12 0 22 -4
22 -10 0 -5 -16 -10 -36 -10 -29 0 -34 -3 -31 -17 3 -10 8 -30 11 -45 4 -19
13 -28 26 -28 16 0 20 7 20 33 l0 32 18 -26 c13 -20 22 -24 37 -19 18 7 18 8
-5 11 -23 4 -25 9 -30 62 -3 31 -9 56 -15 55 -5 -2 -12 10 -15 26 -6 35 -30
48 -30 16z"/>
<path d="M8378 2473 c6 -2 18 -2 25 0 6 3 1 5 -13 5 -14 0 -19 -2 -12 -5z"/>
<path d="M8170 2460 c0 -5 5 -10 11 -10 5 0 7 5 4 10 -3 6 -8 10 -11 10 -2 0
-4 -4 -4 -10z"/>
<path d="M8378 2323 c6 -2 18 -2 25 0 6 3 1 5 -13 5 -14 0 -19 -2 -12 -5z"/>
<path d="M8241 2281 c-21 -6 -22 -8 -7 -20 9 -7 16 -24 16 -37 0 -34 15 -30
16 4 0 15 4 35 8 45 9 18 5 19 -33 8z"/>
<path d="M8333 2283 c20 -5 23 -43 5 -61 -7 -7 -9 -12 -6 -12 4 0 21 18 38 40
l32 40 -44 -1 c-23 -1 -35 -3 -25 -6z"/>
<path d="M7840 2137 c0 -42 5 -79 10 -82 10 -6 6 142 -5 153 -3 3 -5 -29 -5
-71z"/>
<path d="M8433 2173 c9 -2 25 -2 35 0 9 3 1 5 -18 5 -19 0 -27 -2 -17 -5z"/>
<path d="M8208 2153 c6 -2 18 -2 25 0 6 3 1 5 -13 5 -14 0 -19 -2 -12 -5z"/>
<path d="M8118 2143 c6 -2 18 -2 25 0 6 3 1 5 -13 5 -14 0 -19 -2 -12 -5z"/>
<path d="M8712 1905 c0 -16 2 -22 5 -12 2 9 2 23 0 30 -3 6 -5 -1 -5 -18z"/>
<path d="M8840 1883 c0 -25 2 -44 4 -42 8 10 13 89 5 89 -5 0 -9 -21 -9 -47z"/>
<path d="M9201 1903 c0 -25 1 -26 9 -8 12 27 12 35 0 35 -5 0 -10 -12 -9 -27z"/>
<path d="M9405 1921 c-6 -11 9 -23 19 -14 9 9 7 23 -3 23 -6 0 -12 -4 -16 -9z"/>
<path d="M8750 1900 c0 -11 2 -20 4 -20 2 0 6 9 9 20 3 11 1 20 -4 20 -5 0 -9
-9 -9 -20z"/>
<path d="M8925 1910 c3 -5 11 -10 16 -10 6 0 7 5 4 10 -3 6 -11 10 -16 10 -6
0 -7 -4 -4 -10z"/>
<path d="M8977 1913 c-4 -3 -7 -18 -6 -32 1 -26 1 -25 10 3 9 31 7 41 -4 29z"/>
<path d="M9080 1904 c0 -8 5 -12 10 -9 6 4 8 11 5 16 -9 14 -15 11 -15 -7z"/>
<path d="M9135 1909 c-4 -6 -5 -12 -2 -15 2 -3 7 2 10 11 7 17 1 20 -8 4z"/>
<path d="M9292 1888 c-2 -37 11 -58 23 -38 3 5 2 10 -4 10 -5 0 -12 15 -14 33
l-4 32 -1 -37z"/>
<path d="M8653 1860 c0 -25 2 -35 4 -22 2 12 2 32 0 45 -2 12 -4 2 -4 -23z"/>
<path d="M8883 1884 c-3 -8 0 -21 6 -27 9 -9 11 -8 6 5 -4 11 -1 17 12 20 17
3 17 4 0 11 -12 4 -20 1 -24 -9z"/>
<path d="M9459 1857 c-4 -40 -2 -45 8 -30 15 19 15 29 4 58 -6 15 -9 8 -12
-28z"/>
<path d="M9491 1884 c0 -11 3 -14 6 -6 3 7 2 16 -1 19 -3 4 -6 -2 -5 -13z"/>
<path d="M9030 1871 c0 -11 4 -22 9 -25 4 -3 6 6 3 19 -5 30 -12 33 -12 6z"/>
<path d="M9362 1870 c0 -14 2 -19 5 -12 2 6 2 18 0 25 -3 6 -5 1 -5 -13z"/>
<path d="M9402 1870 c0 -14 2 -19 5 -12 2 6 2 18 0 25 -3 6 -5 1 -5 -13z"/>
<path d="M9076 1865 c-3 -8 -1 -15 4 -15 6 0 10 7 10 15 0 8 -2 15 -4 15 -2 0
-6 -7 -10 -15z"/>
<path d="M8590 1595 c0 -3 11 -28 25 -55 31 -61 31 -69 0 -130 l-25 -50 333 0
333 0 28 58 27 57 -27 63 -27 62 -333 0 c-184 0 -334 -2 -334 -5z"/>
<path d="M8180 1518 c0 -10 3 -17 8 -17 4 1 9 1 12 -1 3 -1 15 -3 28 -6 18 -3
22 1 22 21 0 21 -4 24 -35 23 -27 -1 -35 -6 -35 -20z"/>
<path d="M8262 1518 c2 -12 9 -23 17 -26 9 -3 11 0 5 9 -6 12 -5 11 10 0 15
-12 19 -12 33 1 22 22 8 38 -33 38 -31 0 -35 -3 -32 -22z"/>
<path d="M7408 1513 c-22 -5 -35 -50 -21 -72 6 -9 23 -16 39 -16 24 0 29 4 29
25 0 16 -6 26 -18 28 -15 3 -18 0 -12 -18 5 -15 4 -20 -4 -16 -19 12 -13 46 8
46 26 0 35 16 15 24 -9 3 -16 5 -17 5 -1 -1 -10 -3 -19 -6z"/>
<path d="M7498 1512 c-22 -4 -35 -49 -21 -71 6 -9 23 -16 38 -16 34 0 50 23
42 57 -7 26 -28 37 -59 30z m32 -48 c0 -31 -23 -28 -28 4 -2 15 2 22 12 22 11
0 16 -9 16 -26z"/>
<path d="M7586 1504 c-9 -8 -16 -26 -16 -38 0 -53 67 -62 85 -12 8 24 6 31
-14 47 -28 23 -35 23 -55 3z m42 -36 c-4 -28 -24 -34 -31 -9 -6 22 0 31 20 31
9 0 13 -8 11 -22z"/>
<path d="M7677 1514 c-4 -4 -7 -27 -7 -51 0 -41 1 -43 30 -43 39 0 63 43 42
77 -9 14 -55 27 -65 17z m46 -38 c3 -8 -1 -20 -9 -26 -12 -10 -14 -8 -14 14 0
28 14 35 23 12z"/>
<path d="M8032 1452 c-2 -7 -1 -16 3 -20 11 -11 79 -9 88 2 5 8 9 8 15 0 8
-12 71 -13 89 -1 6 4 14 1 16 -5 4 -10 8 -9 16 2 7 10 11 11 11 3 0 -7 6 -13
13 -13 6 0 12 10 12 23 0 23 -1 23 -129 23 -95 -1 -130 -4 -134 -14z"/>
<path d="M8310 1446 c0 -24 4 -26 40 -26 35 0 40 3 40 24 0 18 -5 24 -25 24
-14 0 -25 -5 -25 -10 0 -6 -7 -5 -15 2 -13 11 -15 8 -15 -14z"/>
<path d="M8400 1443 c0 -20 3 -24 9 -14 6 9 11 10 15 2 4 -6 12 -9 17 -5 5 3
7 9 4 14 -3 5 -1 11 5 15 6 3 10 -4 11 -17 l0 -23 10 24 c12 31 5 37 -26 23
-15 -7 -25 -8 -25 -2 0 6 -4 10 -10 10 -5 0 -10 -12 -10 -27z"/>
</g>
</svg>
