<?xml version="1.0" standalone="no"?>
<!DOCTYPE svg PUBLIC "-//W3C//DTD SVG 20010904//EN"
 "http://www.w3.org/TR/2001/REC-SVG-20010904/DTD/svg10.dtd">
<svg version="1.0" xmlns="http://www.w3.org/2000/svg"
 width="1400.000000pt" height="845.000000pt" viewBox="0 0 1400.000000 845.000000"
 preserveAspectRatio="xMidYMid meet">

<g transform="translate(0.000000,845.000000) scale(0.100000,-0.100000)"
fill="#000000" stroke="none">
<path d="M2980 5614 c-113 -10 -251 -43 -315 -77 -11 -6 -24 -12 -30 -13 -26
-5 -146 -81 -200 -126 -181 -153 -294 -346 -336 -569 -31 -170 -4 -422 62
-577 l19 -43 87 104 c49 57 106 125 128 151 37 45 49 59 93 111 10 11 77 92
151 180 73 88 140 165 147 171 8 6 14 14 14 18 0 3 8 14 18 24 9 10 31 36 49
57 17 22 48 58 67 80 20 22 36 44 36 48 0 5 5 5 10 2 6 -4 9 -2 8 3 -3 8 18
34 102 132 11 14 36 42 53 63 18 21 41 48 52 60 11 12 36 42 55 67 19 25 43
54 52 64 10 11 18 23 18 26 0 9 -103 32 -163 36 -26 1 -67 5 -90 7 -23 2 -62
3 -87 1z"/>
<path d="M7500 4940 l0 -451 113 3 112 3 0 445 0 445 -112 3 -113 3 0 -451z"/>
<path d="M4530 5349 c-138 -24 -256 -112 -317 -236 -31 -64 -37 -87 -41 -160
-8 -142 27 -250 111 -340 136 -148 399 -180 610 -74 l72 36 0 180 0 180 -102
3 -103 3 0 -120 0 -120 -42 -12 c-72 -19 -161 -8 -210 27 -112 77 -133 269
-40 367 85 89 228 94 337 12 l34 -27 28 20 c15 11 50 43 76 70 l48 49 -35 31
c-49 43 -114 79 -172 97 -65 19 -185 26 -254 14z"/>
<path d="M8975 5327 c-3 -6 -4 -197 -3 -422 l3 -410 108 -3 107 -3 0 218 0
218 102 -173 103 -172 56 0 56 0 99 171 99 170 5 -213 5 -213 108 -3 107 -3 0
426 0 425 -98 0 -97 0 -139 -240 c-77 -132 -142 -237 -146 -233 -4 4 -69 113
-145 241 l-137 232 -94 0 c-67 0 -96 -4 -99 -13z"/>
<path d="M5327 5150 c-97 -25 -200 -107 -234 -187 -75 -181 8 -386 186 -454
80 -31 214 -31 293 0 222 87 286 373 123 544 -58 61 -149 99 -248 103 -45 2
-99 -1 -120 -6z m163 -195 c41 -21 64 -69 64 -135 1 -99 -58 -159 -145 -147
-95 13 -139 118 -96 231 22 58 113 84 177 51z"/>
<path d="M6098 5146 c-152 -44 -248 -168 -248 -320 0 -137 59 -237 177 -298
194 -99 426 -31 512 152 22 46 26 69 26 140 0 76 -3 93 -33 152 -58 118 -157
177 -307 184 -49 2 -98 -2 -127 -10z m191 -201 c38 -33 55 -84 48 -146 -10
-81 -57 -129 -127 -129 -77 0 -130 61 -130 148 0 96 48 152 131 152 36 0 55
-6 78 -25z"/>
<path d="M6865 5151 c-87 -22 -157 -79 -203 -166 -22 -43 -26 -63 -26 -140 -1
-74 3 -100 23 -142 28 -63 84 -116 158 -150 49 -22 65 -25 143 -21 75 3 94 8
129 31 l41 27 0 -25 c0 -110 -110 -160 -265 -119 -33 8 -70 22 -82 30 -12 7
-26 14 -31 14 -10 0 -82 -131 -82 -150 0 -17 99 -59 182 -76 85 -19 230 -14
295 10 93 33 156 95 191 188 14 36 17 97 20 366 l3 322 -110 0 -111 0 0 -30
c0 -35 -10 -38 -35 -10 -36 40 -159 60 -240 41z m205 -196 c63 -32 81 -138 35
-194 -64 -75 -199 -59 -235 29 -26 62 7 146 65 170 33 14 104 11 135 -5z"/>
<path d="M8087 5150 c-96 -25 -181 -90 -225 -175 -34 -67 -42 -189 -17 -264
39 -117 144 -199 288 -223 114 -19 265 19 321 81 22 24 29 11 -58 108 l-38 42
-37 -24 c-74 -49 -187 -42 -235 16 -14 17 -26 35 -26 40 0 5 97 9 231 9 l232
0 -5 78 c-8 136 -65 230 -173 283 -50 25 -79 32 -141 35 -44 2 -96 -1 -117 -6z
m171 -185 c17 -14 35 -39 41 -55 l10 -30 -130 0 c-71 0 -129 2 -129 5 0 17 33
66 56 84 39 31 113 29 152 -4z"/>
<path d="M10245 5150 c-63 -13 -156 -51 -161 -65 -3 -7 9 -45 27 -84 25 -56
36 -70 48 -65 148 65 261 55 289 -25 l11 -31 -99 0 c-164 0 -238 -25 -287 -99
-31 -45 -31 -128 -2 -188 55 -113 265 -149 364 -61 l34 29 3 -33 3 -33 103 -3
102 -3 0 219 c0 260 -8 301 -74 366 -25 25 -63 50 -92 60 -56 20 -209 29 -269
16z m212 -427 c-8 -49 -44 -83 -93 -89 -60 -7 -89 13 -89 61 0 51 25 65 119
65 l69 0 -6 -37z"/>
<path d="M11165 5156 c-5 -2 -22 -7 -37 -10 -14 -3 -40 -18 -57 -32 l-31 -26
0 31 0 31 -110 0 -110 0 0 -445 0 -445 115 0 115 0 0 140 0 139 52 -27 c101
-52 248 -29 332 53 77 75 113 177 103 292 -16 172 -133 291 -295 299 -37 2
-71 2 -77 0z m74 -200 c91 -48 91 -224 0 -271 -48 -26 -113 -15 -152 24 -27
26 -32 39 -35 94 -5 75 13 123 56 149 33 21 94 23 131 4z"/>
<path d="M3839 5053 c-13 -16 -12 -17 4 -4 16 13 21 21 13 21 -2 0 -10 -8 -17
-17z"/>
<path d="M3469 4613 c-13 -16 -12 -17 4 -4 16 13 21 21 13 21 -2 0 -10 -8 -17
-17z"/>
<path d="M6173 4000 c-41 -25 -53 -48 -53 -104 0 -36 6 -52 29 -78 24 -27 36
-32 88 -36 43 -3 69 0 91 12 83 43 81 177 -3 212 -48 20 -114 18 -152 -6z"/>
<path d="M8340 4007 c-13 -7 -35 -28 -48 -47 -34 -50 -26 -104 22 -147 32 -30
42 -33 96 -33 54 0 64 3 95 33 90 83 32 207 -97 207 -23 0 -54 -6 -68 -13z"/>
<path d="M5528 3886 c-171 -60 -274 -200 -286 -386 -15 -239 140 -425 384
-461 130 -20 268 15 365 92 69 54 68 58 -17 134 l-75 68 -32 -30 c-51 -48 -95
-66 -162 -66 -92 0 -157 40 -201 123 -14 26 -19 57 -19 115 0 70 4 86 28 128
40 67 94 100 172 105 78 5 120 -8 174 -54 l41 -36 38 30 c20 17 54 48 74 69
35 37 36 39 20 59 -36 44 -115 94 -178 114 -96 29 -236 28 -326 -4z"/>
<path d="M6530 3765 l0 -85 -45 0 -45 0 0 -85 0 -85 44 0 44 0 4 -147 c4 -157
16 -203 61 -251 59 -64 193 -89 301 -58 64 19 62 9 23 124 -17 47 -26 61 -37
56 -36 -14 -76 -14 -95 1 -18 14 -20 30 -23 145 l-4 130 76 0 76 0 0 85 0 85
-75 0 -75 0 0 85 0 85 -115 0 -115 0 0 -85z"/>
<path d="M7800 3765 l0 -85 -50 0 -50 0 0 -85 0 -85 50 0 50 0 0 -147 c0 -135
2 -153 24 -199 37 -80 119 -124 231 -124 52 0 155 25 155 38 0 4 -12 42 -26
85 -21 64 -29 77 -43 71 -43 -18 -70 -16 -95 9 -25 25 -26 31 -26 147 l0 120
75 0 75 0 0 85 0 85 -75 0 -75 0 0 85 0 85 -110 0 -110 0 0 -85z"/>
<path d="M7201 3709 c-68 -12 -171 -57 -171 -76 0 -11 55 -130 66 -142 2 -2
25 5 51 17 67 28 108 35 158 28 49 -8 95 -44 95 -76 0 -19 -6 -20 -92 -20
-223 -1 -315 -64 -306 -211 3 -58 8 -74 34 -106 77 -96 274 -112 355 -29 l29
30 0 -37 0 -37 105 0 105 0 0 223 c-1 238 -5 265 -54 336 -61 88 -210 127
-375 100z m207 -422 c5 -43 -54 -97 -105 -97 -50 0 -83 23 -83 58 0 15 4 33 9
40 11 19 65 31 126 29 47 -2 50 -4 53 -30z"/>
<path d="M8900 3709 c-114 -22 -222 -112 -256 -212 -23 -68 -22 -170 2 -238
27 -74 98 -149 176 -185 56 -26 74 -29 163 -29 89 0 107 3 163 29 80 37 153
115 178 188 22 67 22 169 0 235 -53 157 -237 249 -426 212z m163 -205 c35 -26
52 -69 51 -129 -1 -90 -50 -145 -129 -145 -81 0 -129 55 -129 150 0 65 23 112
68 135 39 20 105 14 139 -11z"/>
<path d="M9797 3710 c-43 -11 -94 -36 -119 -58 -17 -14 -18 -13 -18 21 l0 37
-105 0 -105 0 0 -330 0 -330 109 0 109 0 4 188 c4 207 12 238 68 267 34 17 83
20 111 5 43 -23 49 -58 49 -265 l0 -195 115 0 115 0 0 213 c0 262 -14 328 -84
391 -53 48 -173 74 -249 56z"/>
<path d="M10440 3709 c-130 -25 -211 -107 -211 -212 0 -119 63 -172 235 -198
103 -15 136 -27 136 -49 0 -28 -31 -40 -103 -40 -66 0 -154 21 -194 47 -21 14
-23 14 -32 -8 -5 -13 -20 -50 -34 -82 l-26 -57 38 -19 c61 -32 194 -54 280
-48 108 8 178 33 228 83 47 47 58 85 51 165 -9 91 -75 136 -239 165 -51 9
-102 20 -112 26 -24 13 -18 39 13 56 34 18 152 9 210 -16 l45 -19 32 75 c18
42 33 79 33 83 0 10 -81 36 -154 48 -69 13 -132 12 -196 0z"/>
<path d="M6140 3380 l0 -330 115 0 115 0 -2 328 -3 327 -112 3 -113 3 0 -331z"/>
<path d="M8300 3380 l0 -330 110 0 110 0 0 330 0 330 -110 0 -110 0 0 -330z"/>
</g>
</svg>
