<?xml version="1.0" encoding="UTF-8"?>
<svg version="1.1" xmlns="http://www.w3.org/2000/svg" width="512" height="512">
<path d="M0 0 C168.96 0 337.92 0 512 0 C512 168.96 512 337.92 512 512 C343.04 512 174.08 512 0 512 C0 343.04 0 174.08 0 0 Z " fill="#FEFEFE" transform="translate(0,0)"/>
<path d="M0 0 C0.66 0 1.32 0 2 0 C2 115.17 2 230.34 2 349 C-26.05 349 -54.1 349 -83 349 C-83 234.49 -83 119.98 -83 2 C-78 6 -78 6 -75.875 8.8125 C-69.92559345 16.23043095 -59.30330323 21.5135218 -50 23 C-34.75616266 24.05026438 -22.25834983 21.84019879 -10 12 C-5.8524774 8.34661583 -2.76601784 4.80413624 0 0 Z " fill="#23ECF4" transform="translate(291,129)"/>
<path d="M0 0 C111.87 0 223.74 0 339 0 C339 23.76 339 47.52 339 72 C299.07 72 259.14 72 218 72 C217.01 64.08 217.01 64.08 216 56 C210.63450424 42.84176041 202.22072143 32.55152022 189.03515625 26.6796875 C175.9598097 22.05725349 160.69784086 22.36223088 148 28.0625 C135.72386598 34.62521316 127.9983893 44.68044647 122.98046875 57.36328125 C121.57763521 62.15224635 121.57763521 62.15224635 121 72 C81.07 72 41.14 72 0 72 C0 48.24 0 24.48 0 0 Z " fill="#0E2A81" transform="translate(80,33)"/>
<path d="M0 0 C0.66 0 1.32 0 2 0 C2 115.17 2 230.34 2 349 C-26.05 349 -54.1 349 -83 349 C-83 234.49 -83 119.98 -83 2 C-78 6 -78 6 -75.875 8.8125 C-69.92559345 16.23043095 -59.30330323 21.5135218 -50 23 C-34.75616266 24.05026438 -22.25834983 21.84019879 -10 12 C-5.8524774 8.34661583 -2.76601784 4.80413624 0 0 Z M-70 33 C-70 127.38 -70 221.76 -70 319 C-51.52 319 -33.04 319 -14 319 C-14 224.62 -14 130.24 -14 33 C-32.48 33 -50.96 33 -70 33 Z " fill="#0D2B81" transform="translate(291,129)"/>
<path d="M0 0 C0.75667969 0.48597656 1.51335937 0.97195312 2.29296875 1.47265625 C9.86441635 6.83735028 15.59530502 13.9483651 18 23 C19.09387984 35.11791564 17.0991857 45.46996268 9.3515625 55.03515625 C3.11669331 61.84261547 -5.14095425 66.32187716 -14.41015625 67.23828125 C-24.13752224 67.51047559 -32.55867354 64.96372778 -40.15234375 58.7578125 C-48.16900051 51.13097203 -51.9626842 43.75398525 -52.40039062 32.76147461 C-52.57767201 21.95780709 -50.41200801 14.8729009 -42.91796875 6.8515625 C-31.55454458 -4.11842335 -14.20133701 -9.29291374 0 0 Z " fill="#020202" transform="translate(267,73)"/>
<path d="M0 0 C0.66 0 1.32 0 2 0 C2 115.17 2 230.34 2 349 C-26.05 349 -54.1 349 -83 349 C-83 234.49 -83 119.98 -83 2 C-81.35 3.65 -79.7 5.3 -78 7 C-78.99 7 -79.98 7 -81 7 C-81.33 119.2 -81.66 231.4 -82 347 C-55.27 347 -28.54 347 -1 347 C-0.34 347.33 0.32 347.66 1 348 C0.67 233.16 0.34 118.32 0 0 Z " fill="#485D9F" transform="translate(291,129)"/>
</svg>
